<mxfile host="app.diagrams.net" modified="2023-09-18T10:16:08.049Z" agent="Mozilla/5.0 (Windows NT 10.0; Win64; x64) AppleWebKit/537.36 (KHTML, like Gecko) Chrome/117.0.0.0 Safari/537.36 Edg/117.0.2045.31" etag="Yx28DImZxpsE28OYCwh2" version="21.7.5" type="github" pages="3">
  <diagram id="PSbGLTb-JGzMYXCRVldx" name="实体关系-SIL4">
    <mxGraphModel dx="2771" dy="1927" grid="1" gridSize="10" guides="1" tooltips="1" connect="1" arrows="1" fold="1" page="1" pageScale="1" pageWidth="850" pageHeight="1100" math="0" shadow="0">
      <root>
        <mxCell id="0" />
        <mxCell id="1" parent="0" />
        <mxCell id="k3wip8fT3nSkQ_HTbVzT-5" value="" style="rounded=0;whiteSpace=wrap;html=1;fillStyle=dashed;dashed=1;" parent="1" vertex="1">
          <mxGeometry x="-69" y="-70" width="370" height="440" as="geometry" />
        </mxCell>
        <mxCell id="k3wip8fT3nSkQ_HTbVzT-26" style="edgeStyle=orthogonalEdgeStyle;rounded=0;orthogonalLoop=1;jettySize=auto;html=1;exitX=1;exitY=0.5;exitDx=0;exitDy=0;entryX=0.25;entryY=0;entryDx=0;entryDy=0;" parent="1" source="k3wip8fT3nSkQ_HTbVzT-1" target="k3wip8fT3nSkQ_HTbVzT-25" edge="1">
          <mxGeometry relative="1" as="geometry">
            <mxPoint x="441" y="69.88235294117658" as="targetPoint" />
            <Array as="points">
              <mxPoint x="175" y="70" />
            </Array>
          </mxGeometry>
        </mxCell>
        <mxCell id="k3wip8fT3nSkQ_HTbVzT-32" style="edgeStyle=orthogonalEdgeStyle;rounded=0;orthogonalLoop=1;jettySize=auto;html=1;exitX=1;exitY=0.25;exitDx=0;exitDy=0;entryX=0;entryY=0.25;entryDx=0;entryDy=0;strokeWidth=4;strokeColor=#FF0000;" parent="1" source="k3wip8fT3nSkQ_HTbVzT-1" target="k3wip8fT3nSkQ_HTbVzT-33" edge="1">
          <mxGeometry relative="1" as="geometry">
            <mxPoint x="510" y="54.588235294117794" as="targetPoint" />
          </mxGeometry>
        </mxCell>
        <mxCell id="QuTVIExiebyAuRQyOiBQ-5" value="SIL0-100Mb&lt;br&gt;ETH" style="edgeLabel;html=1;align=center;verticalAlign=middle;resizable=0;points=[];fontSize=21;" parent="k3wip8fT3nSkQ_HTbVzT-32" vertex="1" connectable="0">
          <mxGeometry x="0.4133" relative="1" as="geometry">
            <mxPoint as="offset" />
          </mxGeometry>
        </mxCell>
        <mxCell id="k3wip8fT3nSkQ_HTbVzT-1" value="传感器1-1&lt;br style=&quot;font-size: 16px;&quot;&gt;GPS-RTK" style="rounded=0;whiteSpace=wrap;html=1;fillColor=#f8cecc;strokeColor=#b85450;fontSize=16;" parent="1" vertex="1">
          <mxGeometry x="-39" y="35" width="120" height="60" as="geometry" />
        </mxCell>
        <mxCell id="k3wip8fT3nSkQ_HTbVzT-19" style="edgeStyle=orthogonalEdgeStyle;rounded=0;orthogonalLoop=1;jettySize=auto;html=1;exitX=1;exitY=0.5;exitDx=0;exitDy=0;entryX=0;entryY=0.5;entryDx=0;entryDy=0;strokeWidth=4;strokeColor=#FF0000;" parent="1" source="k3wip8fT3nSkQ_HTbVzT-2" target="k3wip8fT3nSkQ_HTbVzT-33" edge="1">
          <mxGeometry relative="1" as="geometry">
            <mxPoint x="510" y="150" as="targetPoint" />
          </mxGeometry>
        </mxCell>
        <mxCell id="QuTVIExiebyAuRQyOiBQ-4" value="SIL0-100Mb&lt;br&gt;ETH" style="edgeLabel;html=1;align=center;verticalAlign=middle;resizable=0;points=[];fontSize=21;" parent="k3wip8fT3nSkQ_HTbVzT-19" vertex="1" connectable="0">
          <mxGeometry x="0.4002" y="2" relative="1" as="geometry">
            <mxPoint x="-8" y="2" as="offset" />
          </mxGeometry>
        </mxCell>
        <mxCell id="k3wip8fT3nSkQ_HTbVzT-47" style="edgeStyle=orthogonalEdgeStyle;rounded=0;orthogonalLoop=1;jettySize=auto;html=1;exitX=0.5;exitY=1;exitDx=0;exitDy=0;entryX=0;entryY=0.25;entryDx=0;entryDy=0;" parent="1" source="k3wip8fT3nSkQ_HTbVzT-2" target="k3wip8fT3nSkQ_HTbVzT-25" edge="1">
          <mxGeometry relative="1" as="geometry" />
        </mxCell>
        <mxCell id="k3wip8fT3nSkQ_HTbVzT-2" value="传感器1-2&lt;br style=&quot;font-size: 16px;&quot;&gt;BD-RTK" style="rounded=0;whiteSpace=wrap;html=1;fillColor=#f8cecc;strokeColor=#b85450;fontSize=16;" parent="1" vertex="1">
          <mxGeometry x="-39" y="120" width="120" height="60" as="geometry" />
        </mxCell>
        <mxCell id="k3wip8fT3nSkQ_HTbVzT-29" style="edgeStyle=orthogonalEdgeStyle;rounded=0;orthogonalLoop=1;jettySize=auto;html=1;exitX=1;exitY=0.5;exitDx=0;exitDy=0;" parent="1" source="k3wip8fT3nSkQ_HTbVzT-3" target="k3wip8fT3nSkQ_HTbVzT-25" edge="1">
          <mxGeometry relative="1" as="geometry" />
        </mxCell>
        <mxCell id="k3wip8fT3nSkQ_HTbVzT-3" value="传感器2-1&lt;br style=&quot;font-size: 15px;&quot;&gt;机械式Lidar" style="rounded=0;whiteSpace=wrap;html=1;fillColor=#dae8fc;strokeColor=#6c8ebf;fontSize=15;" parent="1" vertex="1">
          <mxGeometry x="-39" y="280" width="120" height="60" as="geometry" />
        </mxCell>
        <mxCell id="k3wip8fT3nSkQ_HTbVzT-27" style="edgeStyle=orthogonalEdgeStyle;rounded=0;orthogonalLoop=1;jettySize=auto;html=1;exitX=1;exitY=0.5;exitDx=0;exitDy=0;" parent="1" source="k3wip8fT3nSkQ_HTbVzT-4" target="k3wip8fT3nSkQ_HTbVzT-24" edge="1">
          <mxGeometry relative="1" as="geometry" />
        </mxCell>
        <mxCell id="k3wip8fT3nSkQ_HTbVzT-4" value="传感器0-1&lt;br style=&quot;font-size: 15px;&quot;&gt;Camera 模组" style="rounded=0;whiteSpace=wrap;html=1;dashed=1;fillColor=#dae8fc;strokeColor=#6c8ebf;fontSize=15;" parent="1" vertex="1">
          <mxGeometry x="-39" y="-53" width="120" height="60" as="geometry" />
        </mxCell>
        <mxCell id="k3wip8fT3nSkQ_HTbVzT-9" style="edgeStyle=orthogonalEdgeStyle;rounded=0;orthogonalLoop=1;jettySize=auto;html=1;exitX=1;exitY=0.5;exitDx=0;exitDy=0;entryX=0;entryY=0.5;entryDx=0;entryDy=0;" parent="1" source="k3wip8fT3nSkQ_HTbVzT-7" target="k3wip8fT3nSkQ_HTbVzT-1" edge="1">
          <mxGeometry relative="1" as="geometry" />
        </mxCell>
        <mxCell id="k3wip8fT3nSkQ_HTbVzT-7" value="定位信号" style="ellipse;whiteSpace=wrap;html=1;align=center;fontStyle=4;" parent="1" vertex="1">
          <mxGeometry x="-229" y="45" width="100" height="40" as="geometry" />
        </mxCell>
        <mxCell id="k3wip8fT3nSkQ_HTbVzT-12" style="edgeStyle=orthogonalEdgeStyle;rounded=0;orthogonalLoop=1;jettySize=auto;html=1;exitX=1;exitY=0.5;exitDx=0;exitDy=0;entryX=0;entryY=0.5;entryDx=0;entryDy=0;" parent="1" source="k3wip8fT3nSkQ_HTbVzT-10" target="k3wip8fT3nSkQ_HTbVzT-2" edge="1">
          <mxGeometry relative="1" as="geometry" />
        </mxCell>
        <mxCell id="k3wip8fT3nSkQ_HTbVzT-10" value="定位信号" style="ellipse;whiteSpace=wrap;html=1;align=center;fontStyle=4;" parent="1" vertex="1">
          <mxGeometry x="-229" y="130" width="100" height="40" as="geometry" />
        </mxCell>
        <mxCell id="k3wip8fT3nSkQ_HTbVzT-15" style="edgeStyle=orthogonalEdgeStyle;rounded=0;orthogonalLoop=1;jettySize=auto;html=1;exitX=1;exitY=0.5;exitDx=0;exitDy=0;entryX=0;entryY=0.5;entryDx=0;entryDy=0;" parent="1" source="k3wip8fT3nSkQ_HTbVzT-13" target="k3wip8fT3nSkQ_HTbVzT-3" edge="1">
          <mxGeometry relative="1" as="geometry" />
        </mxCell>
        <mxCell id="k3wip8fT3nSkQ_HTbVzT-13" value="点云数据" style="ellipse;whiteSpace=wrap;html=1;align=center;fontStyle=4;" parent="1" vertex="1">
          <mxGeometry x="-221" y="290" width="100" height="40" as="geometry" />
        </mxCell>
        <mxCell id="D5JBo_ZwWprGUE0tr2o2-14" style="edgeStyle=orthogonalEdgeStyle;rounded=0;orthogonalLoop=1;jettySize=auto;html=1;exitX=0.75;exitY=1;exitDx=0;exitDy=0;entryX=0.75;entryY=0;entryDx=0;entryDy=0;" parent="1" source="k3wip8fT3nSkQ_HTbVzT-24" target="k3wip8fT3nSkQ_HTbVzT-25" edge="1">
          <mxGeometry relative="1" as="geometry" />
        </mxCell>
        <mxCell id="k3wip8fT3nSkQ_HTbVzT-24" value="处理器&lt;br style=&quot;font-size: 15px;&quot;&gt;Orin" style="whiteSpace=wrap;html=1;align=center;dashed=1;fillColor=#dae8fc;strokeColor=#6c8ebf;fontSize=15;" parent="1" vertex="1">
          <mxGeometry x="150" y="-53" width="100" height="60" as="geometry" />
        </mxCell>
        <mxCell id="k3wip8fT3nSkQ_HTbVzT-34" style="edgeStyle=orthogonalEdgeStyle;rounded=0;orthogonalLoop=1;jettySize=auto;html=1;exitX=1;exitY=0.5;exitDx=0;exitDy=0;entryX=0.005;entryY=0.661;entryDx=0;entryDy=0;strokeWidth=4;entryPerimeter=0;startArrow=classicThin;startFill=1;strokeColor=#FF0000;" parent="1" source="k3wip8fT3nSkQ_HTbVzT-25" target="k3wip8fT3nSkQ_HTbVzT-33" edge="1">
          <mxGeometry relative="1" as="geometry" />
        </mxCell>
        <mxCell id="QuTVIExiebyAuRQyOiBQ-1" value="SIL0-100Mb&lt;br&gt;ETH" style="edgeLabel;html=1;align=center;verticalAlign=middle;resizable=0;points=[];fontSize=21;" parent="k3wip8fT3nSkQ_HTbVzT-34" vertex="1" connectable="0">
          <mxGeometry x="0.4401" y="-2" relative="1" as="geometry">
            <mxPoint x="-24" y="4" as="offset" />
          </mxGeometry>
        </mxCell>
        <mxCell id="k3wip8fT3nSkQ_HTbVzT-25" value="处理器&lt;br style=&quot;font-size: 15px;&quot;&gt;智能驾驶机箱" style="whiteSpace=wrap;html=1;align=center;fillColor=#dae8fc;strokeColor=#6c8ebf;verticalAlign=top;fontSize=15;" parent="1" vertex="1">
          <mxGeometry x="150" y="190" width="100" height="150" as="geometry" />
        </mxCell>
        <mxCell id="k3wip8fT3nSkQ_HTbVzT-60" style="edgeStyle=orthogonalEdgeStyle;rounded=0;orthogonalLoop=1;jettySize=auto;html=1;exitX=0.75;exitY=0;exitDx=0;exitDy=0;entryX=0.5;entryY=0;entryDx=0;entryDy=0;strokeWidth=4;" parent="1" source="k3wip8fT3nSkQ_HTbVzT-33" target="k3wip8fT3nSkQ_HTbVzT-55" edge="1">
          <mxGeometry relative="1" as="geometry">
            <Array as="points">
              <mxPoint x="735" y="-130" />
              <mxPoint x="1190" y="-130" />
            </Array>
          </mxGeometry>
        </mxCell>
        <mxCell id="D5JBo_ZwWprGUE0tr2o2-3" value="SIL4-DO" style="edgeLabel;html=1;align=center;verticalAlign=middle;resizable=0;points=[];fontSize=21;" parent="k3wip8fT3nSkQ_HTbVzT-60" vertex="1" connectable="0">
          <mxGeometry x="0.2349" y="2" relative="1" as="geometry">
            <mxPoint x="-26" as="offset" />
          </mxGeometry>
        </mxCell>
        <mxCell id="k3wip8fT3nSkQ_HTbVzT-33" value="安全计算平台&lt;br style=&quot;font-size: 20px;&quot;&gt;SIL4-机箱" style="whiteSpace=wrap;html=1;align=center;fillColor=#60a917;fontColor=#ffffff;strokeColor=#2D7600;verticalAlign=top;fontSize=20;" parent="1" vertex="1">
          <mxGeometry x="510" y="-50" width="300" height="400" as="geometry" />
        </mxCell>
        <mxCell id="k3wip8fT3nSkQ_HTbVzT-59" style="edgeStyle=orthogonalEdgeStyle;rounded=0;orthogonalLoop=1;jettySize=auto;html=1;exitX=0;exitY=0.25;exitDx=0;exitDy=0;entryX=1;entryY=0.5;entryDx=0;entryDy=0;strokeWidth=4;startArrow=classic;startFill=1;strokeColor=#FF0000;" parent="1" source="k3wip8fT3nSkQ_HTbVzT-52" target="k3wip8fT3nSkQ_HTbVzT-33" edge="1">
          <mxGeometry relative="1" as="geometry">
            <Array as="points">
              <mxPoint x="1000" y="262" />
              <mxPoint x="1000" y="150" />
            </Array>
          </mxGeometry>
        </mxCell>
        <mxCell id="D5JBo_ZwWprGUE0tr2o2-4" value="SIL0-CAN" style="edgeLabel;html=1;align=center;verticalAlign=middle;resizable=0;points=[];fontSize=21;" parent="k3wip8fT3nSkQ_HTbVzT-59" vertex="1" connectable="0">
          <mxGeometry x="0.2878" y="3" relative="1" as="geometry">
            <mxPoint x="21" y="-3" as="offset" />
          </mxGeometry>
        </mxCell>
        <mxCell id="k3wip8fT3nSkQ_HTbVzT-52" value="&lt;font style=&quot;font-size: 20px;&quot;&gt;线控转向机&lt;br&gt;要求SIL1+人工&lt;/font&gt;" style="whiteSpace=wrap;html=1;align=center;fontSize=16;fillColor=#f8cecc;strokeColor=#b85450;" parent="1" vertex="1">
          <mxGeometry x="1060" y="230" width="260" height="130" as="geometry" />
        </mxCell>
        <mxCell id="k3wip8fT3nSkQ_HTbVzT-53" value="" style="endArrow=none;dashed=1;html=1;rounded=0;fillColor=#d80073;strokeColor=#A50040;strokeWidth=3;" parent="1" edge="1">
          <mxGeometry width="50" height="50" relative="1" as="geometry">
            <mxPoint x="390" y="770" as="sourcePoint" />
            <mxPoint x="390" y="-290" as="targetPoint" />
          </mxGeometry>
        </mxCell>
        <mxCell id="k3wip8fT3nSkQ_HTbVzT-54" value="" style="endArrow=none;dashed=1;html=1;rounded=0;fillColor=#d80073;strokeColor=#A50040;strokeWidth=3;" parent="1" edge="1">
          <mxGeometry width="50" height="50" relative="1" as="geometry">
            <mxPoint x="900" y="750" as="sourcePoint" />
            <mxPoint x="890" y="-290" as="targetPoint" />
          </mxGeometry>
        </mxCell>
        <mxCell id="k3wip8fT3nSkQ_HTbVzT-55" value="执行器1&lt;br style=&quot;font-size: 20px;&quot;&gt;安全制动系统" style="whiteSpace=wrap;html=1;align=center;fontSize=20;fillColor=#60a917;fontColor=#ffffff;strokeColor=#2D7600;fontStyle=1" parent="1" vertex="1">
          <mxGeometry x="1055" y="-90" width="270" height="80" as="geometry" />
        </mxCell>
        <mxCell id="k3wip8fT3nSkQ_HTbVzT-64" style="edgeStyle=orthogonalEdgeStyle;rounded=0;orthogonalLoop=1;jettySize=auto;html=1;exitX=1;exitY=0.5;exitDx=0;exitDy=0;strokeWidth=4;startArrow=classic;startFill=1;" parent="1" source="k3wip8fT3nSkQ_HTbVzT-61" target="k3wip8fT3nSkQ_HTbVzT-33" edge="1">
          <mxGeometry relative="1" as="geometry" />
        </mxCell>
        <mxCell id="D5JBo_ZwWprGUE0tr2o2-13" value="SIL2-100Mb&lt;br&gt;ETH" style="edgeLabel;html=1;align=center;verticalAlign=middle;resizable=0;points=[];fontSize=21;" parent="k3wip8fT3nSkQ_HTbVzT-64" vertex="1" connectable="0">
          <mxGeometry x="0.1152" relative="1" as="geometry">
            <mxPoint as="offset" />
          </mxGeometry>
        </mxCell>
        <mxCell id="D5JBo_ZwWprGUE0tr2o2-2" style="edgeStyle=orthogonalEdgeStyle;rounded=0;orthogonalLoop=1;jettySize=auto;html=1;exitX=0.75;exitY=0;exitDx=0;exitDy=0;entryX=1;entryY=0.75;entryDx=0;entryDy=0;startArrow=classic;startFill=1;" parent="1" source="k3wip8fT3nSkQ_HTbVzT-61" target="k3wip8fT3nSkQ_HTbVzT-25" edge="1">
          <mxGeometry relative="1" as="geometry" />
        </mxCell>
        <mxCell id="tuFz9fcPf5YimxcDWDDr-2" value="1000MB&lt;br style=&quot;font-size: 21px;&quot;&gt;ETH" style="edgeLabel;html=1;align=center;verticalAlign=middle;resizable=0;points=[];fontSize=21;" parent="D5JBo_ZwWprGUE0tr2o2-2" vertex="1" connectable="0">
          <mxGeometry x="-0.1933" y="4" relative="1" as="geometry">
            <mxPoint as="offset" />
          </mxGeometry>
        </mxCell>
        <mxCell id="oWysnuYIhE1WeySD9ms7-2" style="edgeStyle=orthogonalEdgeStyle;rounded=0;orthogonalLoop=1;jettySize=auto;html=1;exitX=0.5;exitY=1;exitDx=0;exitDy=0;entryX=0.5;entryY=0;entryDx=0;entryDy=0;startArrow=classic;startFill=1;" parent="1" source="k3wip8fT3nSkQ_HTbVzT-61" target="oWysnuYIhE1WeySD9ms7-1" edge="1">
          <mxGeometry relative="1" as="geometry" />
        </mxCell>
        <mxCell id="k3wip8fT3nSkQ_HTbVzT-61" value="整车网络-VCMS" style="whiteSpace=wrap;html=1;align=center;fontSize=15;fillColor=#d5e8d4;strokeColor=#82b366;" parent="1" vertex="1">
          <mxGeometry x="193" y="540" width="180" height="70" as="geometry" />
        </mxCell>
        <mxCell id="k3wip8fT3nSkQ_HTbVzT-63" style="edgeStyle=orthogonalEdgeStyle;rounded=0;orthogonalLoop=1;jettySize=auto;html=1;exitX=1;exitY=0.5;exitDx=0;exitDy=0;entryX=0;entryY=0.5;entryDx=0;entryDy=0;strokeWidth=4;" parent="1" source="k3wip8fT3nSkQ_HTbVzT-62" target="k3wip8fT3nSkQ_HTbVzT-61" edge="1">
          <mxGeometry relative="1" as="geometry" />
        </mxCell>
        <mxCell id="k3wip8fT3nSkQ_HTbVzT-62" value="信号系统" style="whiteSpace=wrap;html=1;align=center;fontSize=15;fillColor=#60a917;fontColor=#ffffff;strokeColor=#2D7600;" parent="1" vertex="1">
          <mxGeometry x="-52" y="540" width="170" height="70" as="geometry" />
        </mxCell>
        <mxCell id="D5JBo_ZwWprGUE0tr2o2-7" style="edgeStyle=orthogonalEdgeStyle;rounded=0;orthogonalLoop=1;jettySize=auto;html=1;exitX=0.5;exitY=0;exitDx=0;exitDy=0;entryX=1;entryY=0.05;entryDx=0;entryDy=0;entryPerimeter=0;strokeWidth=4;" parent="1" source="D5JBo_ZwWprGUE0tr2o2-5" target="k3wip8fT3nSkQ_HTbVzT-33" edge="1">
          <mxGeometry relative="1" as="geometry">
            <Array as="points">
              <mxPoint x="1190" y="20" />
              <mxPoint x="908" y="20" />
              <mxPoint x="908" y="-30" />
            </Array>
          </mxGeometry>
        </mxCell>
        <mxCell id="D5JBo_ZwWprGUE0tr2o2-8" value="SIL2-CAN" style="edgeLabel;html=1;align=center;verticalAlign=middle;resizable=0;points=[];fontSize=21;" parent="D5JBo_ZwWprGUE0tr2o2-7" vertex="1" connectable="0">
          <mxGeometry x="0.021" y="1" relative="1" as="geometry">
            <mxPoint as="offset" />
          </mxGeometry>
        </mxCell>
        <mxCell id="D5JBo_ZwWprGUE0tr2o2-5" value="执行器2&lt;br style=&quot;font-size: 20px;&quot;&gt;无轨导向-第一轴" style="whiteSpace=wrap;html=1;align=center;fontSize=20;fillColor=#d5e8d4;strokeColor=#82b366;" parent="1" vertex="1">
          <mxGeometry x="1055" y="80" width="270" height="130" as="geometry" />
        </mxCell>
        <mxCell id="YiXw8Y56aFc3_bIy6W4r-1" value="输入" style="rounded=0;whiteSpace=wrap;html=1;fontSize=30;fillColor=#ffe6cc;strokeColor=#d79b00;" parent="1" vertex="1">
          <mxGeometry x="-121" y="-220" width="430" height="60" as="geometry" />
        </mxCell>
        <mxCell id="YiXw8Y56aFc3_bIy6W4r-2" value="计算" style="rounded=0;whiteSpace=wrap;html=1;fontSize=30;fillColor=#ffe6cc;strokeColor=#d79b00;" parent="1" vertex="1">
          <mxGeometry x="425" y="-220" width="430" height="60" as="geometry" />
        </mxCell>
        <mxCell id="YiXw8Y56aFc3_bIy6W4r-3" value="输出" style="rounded=0;whiteSpace=wrap;html=1;fontSize=30;fillColor=#ffe6cc;strokeColor=#d79b00;" parent="1" vertex="1">
          <mxGeometry x="970" y="-220" width="430" height="60" as="geometry" />
        </mxCell>
        <mxCell id="oWysnuYIhE1WeySD9ms7-1" value="HMI" style="rounded=0;whiteSpace=wrap;html=1;fillColor=#dae8fc;strokeColor=#6c8ebf;" parent="1" vertex="1">
          <mxGeometry x="193" y="690" width="120" height="60" as="geometry" />
        </mxCell>
        <mxCell id="oWysnuYIhE1WeySD9ms7-3" value="循迹控制-安全-SIL2" style="rounded=0;whiteSpace=wrap;html=1;fontSize=16;fillColor=#d5e8d4;strokeColor=#b37965;" parent="1" vertex="1">
          <mxGeometry x="585" y="50" width="150" height="60" as="geometry" />
        </mxCell>
        <mxCell id="oWysnuYIhE1WeySD9ms7-5" value="道岔选择-SIL2" style="rounded=0;whiteSpace=wrap;html=1;fontSize=16;fillColor=#d5e8d4;strokeColor=#b37965;" parent="1" vertex="1">
          <mxGeometry x="585" y="130" width="150" height="60" as="geometry" />
        </mxCell>
        <mxCell id="oWysnuYIhE1WeySD9ms7-6" value="失效安全保护-SIL4" style="rounded=0;whiteSpace=wrap;html=1;fontSize=16;fillColor=#008a00;strokeColor=#005700;fontColor=#ffffff;" parent="1" vertex="1">
          <mxGeometry x="585" y="210" width="150" height="60" as="geometry" />
        </mxCell>
        <mxCell id="oWysnuYIhE1WeySD9ms7-7" value="循迹控制-性能-SIL0" style="rounded=0;whiteSpace=wrap;html=1;fontSize=16;fillColor=#d5e8d4;strokeColor=#b37965;" parent="1" vertex="1">
          <mxGeometry x="160" y="260" width="80" height="60" as="geometry" />
        </mxCell>
      </root>
    </mxGraphModel>
  </diagram>
  <diagram id="cb_i7vQEoCEqY-VlV7jo" name="实体关系-SIL2">
    <mxGraphModel dx="2184" dy="1713" grid="1" gridSize="10" guides="1" tooltips="1" connect="1" arrows="1" fold="1" page="1" pageScale="1" pageWidth="850" pageHeight="1100" math="0" shadow="0">
      <root>
        <mxCell id="0" />
        <mxCell id="1" parent="0" />
        <mxCell id="3FRlpT5fI4wf7kMN5uNB-2" value="" style="rounded=0;whiteSpace=wrap;html=1;fillStyle=dashed;dashed=1;" parent="1" vertex="1">
          <mxGeometry x="-69" y="-70" width="370" height="440" as="geometry" />
        </mxCell>
        <mxCell id="3FRlpT5fI4wf7kMN5uNB-3" style="edgeStyle=orthogonalEdgeStyle;rounded=0;orthogonalLoop=1;jettySize=auto;html=1;exitX=1;exitY=0.5;exitDx=0;exitDy=0;entryX=0.25;entryY=0;entryDx=0;entryDy=0;" parent="1" source="3FRlpT5fI4wf7kMN5uNB-6" target="3FRlpT5fI4wf7kMN5uNB-25" edge="1">
          <mxGeometry relative="1" as="geometry">
            <mxPoint x="441" y="69.88235294117658" as="targetPoint" />
            <Array as="points">
              <mxPoint x="175" y="70" />
            </Array>
          </mxGeometry>
        </mxCell>
        <mxCell id="3FRlpT5fI4wf7kMN5uNB-4" style="edgeStyle=orthogonalEdgeStyle;rounded=0;orthogonalLoop=1;jettySize=auto;html=1;exitX=1;exitY=0.25;exitDx=0;exitDy=0;entryX=0;entryY=0.25;entryDx=0;entryDy=0;strokeWidth=4;" parent="1" source="3FRlpT5fI4wf7kMN5uNB-6" target="3FRlpT5fI4wf7kMN5uNB-32" edge="1">
          <mxGeometry relative="1" as="geometry">
            <mxPoint x="510" y="54.588235294117794" as="targetPoint" />
          </mxGeometry>
        </mxCell>
        <mxCell id="3FRlpT5fI4wf7kMN5uNB-5" value="SIL1-ETH" style="edgeLabel;html=1;align=center;verticalAlign=middle;resizable=0;points=[];fontSize=21;" parent="3FRlpT5fI4wf7kMN5uNB-4" vertex="1" connectable="0">
          <mxGeometry x="0.4133" relative="1" as="geometry">
            <mxPoint as="offset" />
          </mxGeometry>
        </mxCell>
        <mxCell id="3FRlpT5fI4wf7kMN5uNB-6" value="传感器1-1&lt;br&gt;GPS-RTK" style="rounded=0;whiteSpace=wrap;html=1;fillColor=#d5e8d4;strokeColor=#82b366;" parent="1" vertex="1">
          <mxGeometry x="-39" y="40" width="120" height="60" as="geometry" />
        </mxCell>
        <mxCell id="3FRlpT5fI4wf7kMN5uNB-7" style="edgeStyle=orthogonalEdgeStyle;rounded=0;orthogonalLoop=1;jettySize=auto;html=1;exitX=1;exitY=0.5;exitDx=0;exitDy=0;entryX=0;entryY=0.5;entryDx=0;entryDy=0;strokeWidth=4;" parent="1" source="3FRlpT5fI4wf7kMN5uNB-10" target="3FRlpT5fI4wf7kMN5uNB-32" edge="1">
          <mxGeometry relative="1" as="geometry">
            <mxPoint x="510" y="150" as="targetPoint" />
          </mxGeometry>
        </mxCell>
        <mxCell id="3FRlpT5fI4wf7kMN5uNB-8" value="SIL1-ETH" style="edgeLabel;html=1;align=center;verticalAlign=middle;resizable=0;points=[];fontSize=21;" parent="3FRlpT5fI4wf7kMN5uNB-7" vertex="1" connectable="0">
          <mxGeometry x="0.4002" y="2" relative="1" as="geometry">
            <mxPoint as="offset" />
          </mxGeometry>
        </mxCell>
        <mxCell id="3FRlpT5fI4wf7kMN5uNB-9" style="edgeStyle=orthogonalEdgeStyle;rounded=0;orthogonalLoop=1;jettySize=auto;html=1;exitX=0.5;exitY=1;exitDx=0;exitDy=0;entryX=0;entryY=0.25;entryDx=0;entryDy=0;" parent="1" source="3FRlpT5fI4wf7kMN5uNB-10" target="3FRlpT5fI4wf7kMN5uNB-25" edge="1">
          <mxGeometry relative="1" as="geometry" />
        </mxCell>
        <mxCell id="3FRlpT5fI4wf7kMN5uNB-10" value="传感器1-2&lt;br&gt;BD-RTK" style="rounded=0;whiteSpace=wrap;html=1;fillColor=#d5e8d4;strokeColor=#82b366;" parent="1" vertex="1">
          <mxGeometry x="-39" y="120" width="120" height="60" as="geometry" />
        </mxCell>
        <mxCell id="3FRlpT5fI4wf7kMN5uNB-11" style="edgeStyle=orthogonalEdgeStyle;rounded=0;orthogonalLoop=1;jettySize=auto;html=1;exitX=1;exitY=0.5;exitDx=0;exitDy=0;" parent="1" source="3FRlpT5fI4wf7kMN5uNB-12" target="3FRlpT5fI4wf7kMN5uNB-25" edge="1">
          <mxGeometry relative="1" as="geometry" />
        </mxCell>
        <mxCell id="3FRlpT5fI4wf7kMN5uNB-12" value="传感器2-1&lt;br&gt;机械式Lidar" style="rounded=0;whiteSpace=wrap;html=1;fillColor=#f5f5f5;strokeColor=#666666;fontColor=#333333;" parent="1" vertex="1">
          <mxGeometry x="-39" y="280" width="120" height="60" as="geometry" />
        </mxCell>
        <mxCell id="3FRlpT5fI4wf7kMN5uNB-13" style="edgeStyle=orthogonalEdgeStyle;rounded=0;orthogonalLoop=1;jettySize=auto;html=1;exitX=1;exitY=0.5;exitDx=0;exitDy=0;dashed=1;" parent="1" source="3FRlpT5fI4wf7kMN5uNB-14" target="3FRlpT5fI4wf7kMN5uNB-22" edge="1">
          <mxGeometry relative="1" as="geometry" />
        </mxCell>
        <mxCell id="3FRlpT5fI4wf7kMN5uNB-14" value="传感器0-1&lt;br&gt;Camera 模组" style="rounded=0;whiteSpace=wrap;html=1;dashed=1;fillColor=#f5f5f5;fontColor=#333333;strokeColor=#666666;" parent="1" vertex="1">
          <mxGeometry x="-39" y="-40" width="120" height="60" as="geometry" />
        </mxCell>
        <mxCell id="3FRlpT5fI4wf7kMN5uNB-15" style="edgeStyle=orthogonalEdgeStyle;rounded=0;orthogonalLoop=1;jettySize=auto;html=1;exitX=1;exitY=0.5;exitDx=0;exitDy=0;entryX=0;entryY=0.5;entryDx=0;entryDy=0;" parent="1" source="3FRlpT5fI4wf7kMN5uNB-16" target="3FRlpT5fI4wf7kMN5uNB-6" edge="1">
          <mxGeometry relative="1" as="geometry" />
        </mxCell>
        <mxCell id="3FRlpT5fI4wf7kMN5uNB-16" value="定位信号" style="ellipse;whiteSpace=wrap;html=1;align=center;fontStyle=4;" parent="1" vertex="1">
          <mxGeometry x="-229" y="50" width="100" height="40" as="geometry" />
        </mxCell>
        <mxCell id="3FRlpT5fI4wf7kMN5uNB-17" style="edgeStyle=orthogonalEdgeStyle;rounded=0;orthogonalLoop=1;jettySize=auto;html=1;exitX=1;exitY=0.5;exitDx=0;exitDy=0;entryX=0;entryY=0.5;entryDx=0;entryDy=0;" parent="1" source="3FRlpT5fI4wf7kMN5uNB-18" target="3FRlpT5fI4wf7kMN5uNB-10" edge="1">
          <mxGeometry relative="1" as="geometry" />
        </mxCell>
        <mxCell id="3FRlpT5fI4wf7kMN5uNB-18" value="定位信号" style="ellipse;whiteSpace=wrap;html=1;align=center;fontStyle=4;" parent="1" vertex="1">
          <mxGeometry x="-229" y="130" width="100" height="40" as="geometry" />
        </mxCell>
        <mxCell id="3FRlpT5fI4wf7kMN5uNB-19" style="edgeStyle=orthogonalEdgeStyle;rounded=0;orthogonalLoop=1;jettySize=auto;html=1;exitX=1;exitY=0.5;exitDx=0;exitDy=0;entryX=0;entryY=0.5;entryDx=0;entryDy=0;" parent="1" source="3FRlpT5fI4wf7kMN5uNB-20" target="3FRlpT5fI4wf7kMN5uNB-12" edge="1">
          <mxGeometry relative="1" as="geometry" />
        </mxCell>
        <mxCell id="3FRlpT5fI4wf7kMN5uNB-20" value="点云数据" style="ellipse;whiteSpace=wrap;html=1;align=center;fontStyle=4;" parent="1" vertex="1">
          <mxGeometry x="-221" y="290" width="100" height="40" as="geometry" />
        </mxCell>
        <mxCell id="3FRlpT5fI4wf7kMN5uNB-21" style="edgeStyle=orthogonalEdgeStyle;rounded=0;orthogonalLoop=1;jettySize=auto;html=1;exitX=0.75;exitY=1;exitDx=0;exitDy=0;entryX=0.75;entryY=0;entryDx=0;entryDy=0;" parent="1" source="3FRlpT5fI4wf7kMN5uNB-22" target="3FRlpT5fI4wf7kMN5uNB-25" edge="1">
          <mxGeometry relative="1" as="geometry" />
        </mxCell>
        <mxCell id="3FRlpT5fI4wf7kMN5uNB-22" value="处理器&lt;br&gt;Orin" style="whiteSpace=wrap;html=1;align=center;dashed=1;fillColor=#f5f5f5;fontColor=#333333;strokeColor=#666666;" parent="1" vertex="1">
          <mxGeometry x="150" y="-40" width="100" height="60" as="geometry" />
        </mxCell>
        <mxCell id="3FRlpT5fI4wf7kMN5uNB-23" style="edgeStyle=orthogonalEdgeStyle;rounded=0;orthogonalLoop=1;jettySize=auto;html=1;exitX=1;exitY=0.5;exitDx=0;exitDy=0;entryX=0.005;entryY=0.661;entryDx=0;entryDy=0;strokeWidth=4;entryPerimeter=0;" parent="1" source="3FRlpT5fI4wf7kMN5uNB-25" target="3FRlpT5fI4wf7kMN5uNB-32" edge="1">
          <mxGeometry relative="1" as="geometry" />
        </mxCell>
        <mxCell id="3FRlpT5fI4wf7kMN5uNB-24" value="SIL0-ETH" style="edgeLabel;html=1;align=center;verticalAlign=middle;resizable=0;points=[];fontSize=21;" parent="3FRlpT5fI4wf7kMN5uNB-23" vertex="1" connectable="0">
          <mxGeometry x="0.4401" y="-2" relative="1" as="geometry">
            <mxPoint x="-44" y="24" as="offset" />
          </mxGeometry>
        </mxCell>
        <mxCell id="3FRlpT5fI4wf7kMN5uNB-25" value="处理器&lt;br&gt;智能驾驶机箱" style="whiteSpace=wrap;html=1;align=center;fillColor=#f5f5f5;fontColor=#333333;strokeColor=#666666;" parent="1" vertex="1">
          <mxGeometry x="150" y="190" width="100" height="150" as="geometry" />
        </mxCell>
        <mxCell id="3FRlpT5fI4wf7kMN5uNB-26" style="edgeStyle=orthogonalEdgeStyle;rounded=0;orthogonalLoop=1;jettySize=auto;html=1;exitX=0.995;exitY=0.604;exitDx=0;exitDy=0;entryX=-0.004;entryY=0.624;entryDx=0;entryDy=0;entryPerimeter=0;strokeWidth=4;exitPerimeter=0;" parent="1" source="3FRlpT5fI4wf7kMN5uNB-32" target="3FRlpT5fI4wf7kMN5uNB-35" edge="1">
          <mxGeometry relative="1" as="geometry">
            <Array as="points">
              <mxPoint x="950" y="192" />
              <mxPoint x="950" y="277" />
            </Array>
          </mxGeometry>
        </mxCell>
        <mxCell id="3FRlpT5fI4wf7kMN5uNB-27" value="SIL2/SIL0-CAN" style="edgeLabel;html=1;align=center;verticalAlign=middle;resizable=0;points=[];fontSize=21;" parent="3FRlpT5fI4wf7kMN5uNB-26" vertex="1" connectable="0">
          <mxGeometry x="-0.5357" y="-1" relative="1" as="geometry">
            <mxPoint x="82" y="47" as="offset" />
          </mxGeometry>
        </mxCell>
        <mxCell id="3FRlpT5fI4wf7kMN5uNB-30" style="edgeStyle=orthogonalEdgeStyle;rounded=0;orthogonalLoop=1;jettySize=auto;html=1;exitX=0.75;exitY=1;exitDx=0;exitDy=0;entryX=0.25;entryY=1;entryDx=0;entryDy=0;strokeWidth=4;" parent="1" source="3FRlpT5fI4wf7kMN5uNB-32" target="3FRlpT5fI4wf7kMN5uNB-42" edge="1">
          <mxGeometry relative="1" as="geometry">
            <Array as="points">
              <mxPoint x="735" y="670" />
              <mxPoint x="238" y="670" />
            </Array>
          </mxGeometry>
        </mxCell>
        <mxCell id="3FRlpT5fI4wf7kMN5uNB-31" value="&lt;font style=&quot;font-size: 21px;&quot;&gt;SIL2/SIL0-ETH&lt;/font&gt;" style="edgeLabel;html=1;align=center;verticalAlign=middle;resizable=0;points=[];endArrow=classic;rounded=0;strokeColor=default;strokeWidth=4;" parent="3FRlpT5fI4wf7kMN5uNB-30" vertex="1" connectable="0">
          <mxGeometry x="0.1433" y="1" relative="1" as="geometry">
            <mxPoint as="offset" />
          </mxGeometry>
        </mxCell>
        <mxCell id="3FRlpT5fI4wf7kMN5uNB-32" value="G600&lt;br&gt;机箱" style="whiteSpace=wrap;html=1;align=center;fillColor=#60a917;fontColor=#ffffff;strokeColor=#2D7600;verticalAlign=middle;fontSize=20;" parent="1" vertex="1">
          <mxGeometry x="510" y="-50" width="300" height="400" as="geometry" />
        </mxCell>
        <mxCell id="3FRlpT5fI4wf7kMN5uNB-33" style="edgeStyle=orthogonalEdgeStyle;rounded=0;orthogonalLoop=1;jettySize=auto;html=1;exitX=0;exitY=0.25;exitDx=0;exitDy=0;entryX=1;entryY=0.25;entryDx=0;entryDy=0;strokeWidth=4;" parent="1" source="3FRlpT5fI4wf7kMN5uNB-35" target="3FRlpT5fI4wf7kMN5uNB-32" edge="1">
          <mxGeometry relative="1" as="geometry">
            <Array as="points">
              <mxPoint x="1000" y="195" />
              <mxPoint x="1000" y="50" />
            </Array>
          </mxGeometry>
        </mxCell>
        <mxCell id="3FRlpT5fI4wf7kMN5uNB-34" value="SIL1-CAN" style="edgeLabel;html=1;align=center;verticalAlign=middle;resizable=0;points=[];fontSize=21;" parent="3FRlpT5fI4wf7kMN5uNB-33" vertex="1" connectable="0">
          <mxGeometry x="0.2878" y="3" relative="1" as="geometry">
            <mxPoint x="31" y="37" as="offset" />
          </mxGeometry>
        </mxCell>
        <mxCell id="3FRlpT5fI4wf7kMN5uNB-35" value="线控转向机，要求SIL1+人工" style="whiteSpace=wrap;html=1;align=center;fontSize=15;fillColor=#d5e8d4;strokeColor=#82b366;" parent="1" vertex="1">
          <mxGeometry x="1110" y="140" width="270" height="220" as="geometry" />
        </mxCell>
        <mxCell id="3FRlpT5fI4wf7kMN5uNB-36" value="" style="endArrow=none;dashed=1;html=1;rounded=0;fillColor=#d80073;strokeColor=#A50040;strokeWidth=3;" parent="1" edge="1">
          <mxGeometry width="50" height="50" relative="1" as="geometry">
            <mxPoint x="390" y="770" as="sourcePoint" />
            <mxPoint x="390" y="-290" as="targetPoint" />
          </mxGeometry>
        </mxCell>
        <mxCell id="3FRlpT5fI4wf7kMN5uNB-37" value="" style="endArrow=none;dashed=1;html=1;rounded=0;fillColor=#d80073;strokeColor=#A50040;strokeWidth=3;" parent="1" edge="1">
          <mxGeometry width="50" height="50" relative="1" as="geometry">
            <mxPoint x="900" y="750" as="sourcePoint" />
            <mxPoint x="890" y="-290" as="targetPoint" />
          </mxGeometry>
        </mxCell>
        <mxCell id="3FRlpT5fI4wf7kMN5uNB-39" style="edgeStyle=orthogonalEdgeStyle;rounded=0;orthogonalLoop=1;jettySize=auto;html=1;exitX=1;exitY=0.5;exitDx=0;exitDy=0;entryX=0.001;entryY=0.88;entryDx=0;entryDy=0;entryPerimeter=0;strokeWidth=4;" parent="1" source="3FRlpT5fI4wf7kMN5uNB-42" target="3FRlpT5fI4wf7kMN5uNB-32" edge="1">
          <mxGeometry relative="1" as="geometry" />
        </mxCell>
        <mxCell id="3FRlpT5fI4wf7kMN5uNB-40" value="SIL2-ETH" style="edgeLabel;html=1;align=center;verticalAlign=middle;resizable=0;points=[];fontSize=21;" parent="3FRlpT5fI4wf7kMN5uNB-39" vertex="1" connectable="0">
          <mxGeometry x="0.1152" relative="1" as="geometry">
            <mxPoint as="offset" />
          </mxGeometry>
        </mxCell>
        <mxCell id="3FRlpT5fI4wf7kMN5uNB-41" style="edgeStyle=orthogonalEdgeStyle;rounded=0;orthogonalLoop=1;jettySize=auto;html=1;exitX=0.75;exitY=0;exitDx=0;exitDy=0;entryX=1;entryY=0.75;entryDx=0;entryDy=0;" parent="1" source="3FRlpT5fI4wf7kMN5uNB-42" target="3FRlpT5fI4wf7kMN5uNB-25" edge="1">
          <mxGeometry relative="1" as="geometry" />
        </mxCell>
        <mxCell id="3FRlpT5fI4wf7kMN5uNB-42" value="整车网络-VCMS" style="whiteSpace=wrap;html=1;align=center;fontSize=15;fillColor=#d5e8d4;strokeColor=#82b366;" parent="1" vertex="1">
          <mxGeometry x="193" y="540" width="180" height="70" as="geometry" />
        </mxCell>
        <mxCell id="3FRlpT5fI4wf7kMN5uNB-43" style="edgeStyle=orthogonalEdgeStyle;rounded=0;orthogonalLoop=1;jettySize=auto;html=1;exitX=1;exitY=0.5;exitDx=0;exitDy=0;entryX=0;entryY=0.5;entryDx=0;entryDy=0;" parent="1" source="3FRlpT5fI4wf7kMN5uNB-44" target="3FRlpT5fI4wf7kMN5uNB-42" edge="1">
          <mxGeometry relative="1" as="geometry" />
        </mxCell>
        <mxCell id="3FRlpT5fI4wf7kMN5uNB-44" value="信号系统" style="whiteSpace=wrap;html=1;align=center;fontSize=15;fillColor=#60a917;fontColor=#ffffff;strokeColor=#2D7600;" parent="1" vertex="1">
          <mxGeometry x="-36" y="540" width="170" height="70" as="geometry" />
        </mxCell>
        <mxCell id="3FRlpT5fI4wf7kMN5uNB-48" value="输入" style="rounded=0;whiteSpace=wrap;html=1;fontSize=30;fillColor=#ffe6cc;strokeColor=#d79b00;" parent="1" vertex="1">
          <mxGeometry x="-166" y="-220" width="430" height="60" as="geometry" />
        </mxCell>
        <mxCell id="3FRlpT5fI4wf7kMN5uNB-49" value="计算" style="rounded=0;whiteSpace=wrap;html=1;fontSize=30;fillColor=#ffe6cc;strokeColor=#d79b00;" parent="1" vertex="1">
          <mxGeometry x="425" y="-220" width="430" height="60" as="geometry" />
        </mxCell>
        <mxCell id="3FRlpT5fI4wf7kMN5uNB-50" value="输出" style="rounded=0;whiteSpace=wrap;html=1;fontSize=30;fillColor=#ffe6cc;strokeColor=#d79b00;" parent="1" vertex="1">
          <mxGeometry x="970" y="-220" width="430" height="60" as="geometry" />
        </mxCell>
      </root>
    </mxGraphModel>
  </diagram>
  <diagram id="H9GjOlIk_Rh9UV2NHRs_" name="数据流-SIL4">
    <mxGraphModel dx="1388" dy="1332" grid="1" gridSize="10" guides="1" tooltips="1" connect="1" arrows="1" fold="1" page="1" pageScale="1" pageWidth="850" pageHeight="1100" math="0" shadow="0">
      <root>
        <mxCell id="0" />
        <mxCell id="1" parent="0" />
        <mxCell id="I3Sm8Q1l1oSc-Qxl9463-4" value="Duagon机箱_CPUAtom*3_x86" style="rounded=0;whiteSpace=wrap;html=1;fillColor=none;dashed=1;strokeWidth=2;align=left;verticalAlign=top;fontSize=14;" parent="1" vertex="1">
          <mxGeometry x="180" y="346" width="1370" height="344" as="geometry" />
        </mxCell>
        <mxCell id="W6yG89-xySl9O2DCmFQ0-6" value="图像信号处理器_GPU_外购" style="rounded=0;whiteSpace=wrap;html=1;fillColor=none;dashed=1;strokeWidth=2;align=left;verticalAlign=top;fontSize=14;" parent="1" vertex="1">
          <mxGeometry x="180" y="-294" width="240" height="126" as="geometry" />
        </mxCell>
        <mxCell id="W6yG89-xySl9O2DCmFQ0-5" value="定位数据处理器_CPU_x86_自主化智能机箱" style="rounded=0;whiteSpace=wrap;html=1;fillColor=none;dashed=1;strokeWidth=2;align=left;verticalAlign=top;fontSize=14;" parent="1" vertex="1">
          <mxGeometry x="180" y="-138" width="1220" height="460" as="geometry" />
        </mxCell>
        <mxCell id="CKitpAn34eTJPyH5BuWE-4" style="edgeStyle=orthogonalEdgeStyle;rounded=0;orthogonalLoop=1;jettySize=auto;html=1;exitX=1;exitY=0.5;exitDx=0;exitDy=0;entryX=0;entryY=0.25;entryDx=0;entryDy=0;" parent="1" source="BZtlhnFzKGFEZJdJf1P--1" target="CKitpAn34eTJPyH5BuWE-1" edge="1">
          <mxGeometry relative="1" as="geometry" />
        </mxCell>
        <mxCell id="BZtlhnFzKGFEZJdJf1P--1" value="点云数据" style="rounded=0;whiteSpace=wrap;html=1;" parent="1" vertex="1">
          <mxGeometry y="-4" width="120" height="60" as="geometry" />
        </mxCell>
        <mxCell id="CKitpAn34eTJPyH5BuWE-7" style="edgeStyle=orthogonalEdgeStyle;rounded=0;orthogonalLoop=1;jettySize=auto;html=1;exitX=1;exitY=0.5;exitDx=0;exitDy=0;entryX=0;entryY=0.25;entryDx=0;entryDy=0;" parent="1" source="uz_q0G_aVqhpZY-xAXSW-1" target="CKitpAn34eTJPyH5BuWE-5" edge="1">
          <mxGeometry relative="1" as="geometry" />
        </mxCell>
        <mxCell id="tL_JUln0x5uJwvVHxqYm-2" style="edgeStyle=orthogonalEdgeStyle;rounded=0;orthogonalLoop=1;jettySize=auto;html=1;exitX=0;exitY=0.5;exitDx=0;exitDy=0;entryX=0;entryY=0.25;entryDx=0;entryDy=0;" parent="1" source="uz_q0G_aVqhpZY-xAXSW-1" target="G2yhaBqVQ7Rxf4hUkdya-5" edge="1">
          <mxGeometry relative="1" as="geometry" />
        </mxCell>
        <mxCell id="uz_q0G_aVqhpZY-xAXSW-1" value="GPS/RTK -1" style="rounded=0;whiteSpace=wrap;html=1;" parent="1" vertex="1">
          <mxGeometry y="116" width="120" height="60" as="geometry" />
        </mxCell>
        <mxCell id="CKitpAn34eTJPyH5BuWE-25" style="edgeStyle=orthogonalEdgeStyle;rounded=0;orthogonalLoop=1;jettySize=auto;html=1;exitX=1;exitY=0.5;exitDx=0;exitDy=0;entryX=0;entryY=0.25;entryDx=0;entryDy=0;" parent="1" source="uz_q0G_aVqhpZY-xAXSW-2" target="CKitpAn34eTJPyH5BuWE-21" edge="1">
          <mxGeometry relative="1" as="geometry" />
        </mxCell>
        <mxCell id="tL_JUln0x5uJwvVHxqYm-1" style="edgeStyle=orthogonalEdgeStyle;rounded=0;orthogonalLoop=1;jettySize=auto;html=1;exitX=0.5;exitY=1;exitDx=0;exitDy=0;entryX=0;entryY=0.25;entryDx=0;entryDy=0;" parent="1" source="uz_q0G_aVqhpZY-xAXSW-2" target="G2yhaBqVQ7Rxf4hUkdya-1" edge="1">
          <mxGeometry relative="1" as="geometry" />
        </mxCell>
        <mxCell id="uz_q0G_aVqhpZY-xAXSW-2" value="GPS/RTK -2" style="rounded=0;whiteSpace=wrap;html=1;" parent="1" vertex="1">
          <mxGeometry y="236" width="120" height="60" as="geometry" />
        </mxCell>
        <mxCell id="SrfplcpbmUxofHk9KIb3-17" style="edgeStyle=orthogonalEdgeStyle;rounded=0;orthogonalLoop=1;jettySize=auto;html=1;exitX=1;exitY=0.5;exitDx=0;exitDy=0;entryX=0.031;entryY=0.053;entryDx=0;entryDy=0;entryPerimeter=0;dashed=1;" parent="1" source="uz_q0G_aVqhpZY-xAXSW-3" target="o8_byREZAqRba5Iupg0P-94" edge="1">
          <mxGeometry relative="1" as="geometry" />
        </mxCell>
        <mxCell id="uz_q0G_aVqhpZY-xAXSW-3" value="视觉数据" style="rounded=0;whiteSpace=wrap;html=1;dashed=1;" parent="1" vertex="1">
          <mxGeometry y="-247" width="120" height="60" as="geometry" />
        </mxCell>
        <mxCell id="SrfplcpbmUxofHk9KIb3-6" style="edgeStyle=orthogonalEdgeStyle;rounded=0;orthogonalLoop=1;jettySize=auto;html=1;exitX=0.5;exitY=0;exitDx=0;exitDy=0;entryX=0.5;entryY=0;entryDx=0;entryDy=0;" parent="1" source="o8_byREZAqRba5Iupg0P-1" target="1_bBR38_FuNowLDQo-79-1" edge="1">
          <mxGeometry relative="1" as="geometry" />
        </mxCell>
        <mxCell id="SrfplcpbmUxofHk9KIb3-8" style="edgeStyle=orthogonalEdgeStyle;rounded=0;orthogonalLoop=1;jettySize=auto;html=1;exitX=0.5;exitY=1;exitDx=0;exitDy=0;entryX=0.5;entryY=0;entryDx=0;entryDy=0;" parent="1" source="o8_byREZAqRba5Iupg0P-1" target="1_bBR38_FuNowLDQo-79-7" edge="1">
          <mxGeometry relative="1" as="geometry" />
        </mxCell>
        <mxCell id="SrfplcpbmUxofHk9KIb3-9" style="edgeStyle=orthogonalEdgeStyle;rounded=0;orthogonalLoop=1;jettySize=auto;html=1;exitX=0.25;exitY=1;exitDx=0;exitDy=0;entryX=0.25;entryY=0;entryDx=0;entryDy=0;" parent="1" source="o8_byREZAqRba5Iupg0P-1" target="1_bBR38_FuNowLDQo-79-7" edge="1">
          <mxGeometry relative="1" as="geometry">
            <Array as="points">
              <mxPoint x="1714" y="540" />
              <mxPoint x="1425" y="540" />
            </Array>
          </mxGeometry>
        </mxCell>
        <mxCell id="o8_byREZAqRba5Iupg0P-1" value="无轨导向-第一轴&lt;br&gt;转角执行" style="rounded=0;whiteSpace=wrap;html=1;" parent="1" vertex="1">
          <mxGeometry x="1684" y="436" width="120" height="60" as="geometry" />
        </mxCell>
        <mxCell id="o8_byREZAqRba5Iupg0P-2" value="制动系统&lt;br&gt;安全制动" style="rounded=0;whiteSpace=wrap;html=1;" parent="1" vertex="1">
          <mxGeometry x="1684" y="676" width="120" height="60" as="geometry" />
        </mxCell>
        <mxCell id="o8_byREZAqRba5Iupg0P-93" value="0.1" style="swimlane;html=1;fontStyle=0;childLayout=stackLayout;horizontal=1;startSize=26;fillColor=#e0e0e0;horizontalStack=0;resizeParent=1;resizeLast=0;collapsible=1;marginBottom=0;swimlaneFillColor=#ffffff;align=center;rounded=1;shadow=0;comic=0;labelBackgroundColor=none;strokeWidth=1;fontFamily=Verdana;fontSize=12" parent="1" vertex="1">
          <mxGeometry x="200" y="-243" width="140" height="52" as="geometry" />
        </mxCell>
        <mxCell id="o8_byREZAqRba5Iupg0P-94" value="视觉循迹线感知" style="text;html=1;strokeColor=none;fillColor=none;spacingLeft=4;spacingRight=4;whiteSpace=wrap;overflow=hidden;rotatable=0;points=[[0,0.5],[1,0.5]];portConstraint=eastwest;align=center;" parent="o8_byREZAqRba5Iupg0P-93" vertex="1">
          <mxGeometry y="26" width="140" height="26" as="geometry" />
        </mxCell>
        <mxCell id="CKitpAn34eTJPyH5BuWE-11" value="" style="edgeStyle=orthogonalEdgeStyle;rounded=0;orthogonalLoop=1;jettySize=auto;html=1;entryX=0.5;entryY=0;entryDx=0;entryDy=0;exitX=0.5;exitY=1;exitDx=0;exitDy=0;" parent="1" source="1_bBR38_FuNowLDQo-79-24" target="CKitpAn34eTJPyH5BuWE-8" edge="1">
          <mxGeometry relative="1" as="geometry">
            <mxPoint x="490" y="-84" as="sourcePoint" />
          </mxGeometry>
        </mxCell>
        <mxCell id="CKitpAn34eTJPyH5BuWE-12" style="edgeStyle=orthogonalEdgeStyle;rounded=0;orthogonalLoop=1;jettySize=auto;html=1;exitX=1;exitY=0.5;exitDx=0;exitDy=0;entryX=0;entryY=0.25;entryDx=0;entryDy=0;" parent="1" source="CKitpAn34eTJPyH5BuWE-1" target="CKitpAn34eTJPyH5BuWE-8" edge="1">
          <mxGeometry relative="1" as="geometry" />
        </mxCell>
        <mxCell id="CKitpAn34eTJPyH5BuWE-1" value="1.1" style="swimlane;html=1;fontStyle=0;childLayout=stackLayout;horizontal=1;startSize=26;fillColor=#e0e0e0;horizontalStack=0;resizeParent=1;resizeLast=0;collapsible=1;marginBottom=0;swimlaneFillColor=#ffffff;align=center;rounded=1;shadow=0;comic=0;labelBackgroundColor=none;strokeWidth=1;fontFamily=Verdana;fontSize=12" parent="1" vertex="1">
          <mxGeometry x="197.5" width="140" height="52" as="geometry" />
        </mxCell>
        <mxCell id="CKitpAn34eTJPyH5BuWE-2" value="点云数据处理" style="text;html=1;strokeColor=none;fillColor=none;spacingLeft=4;spacingRight=4;whiteSpace=wrap;overflow=hidden;rotatable=0;points=[[0,0.5],[1,0.5]];portConstraint=eastwest;align=center;" parent="CKitpAn34eTJPyH5BuWE-1" vertex="1">
          <mxGeometry y="26" width="140" height="26" as="geometry" />
        </mxCell>
        <mxCell id="CKitpAn34eTJPyH5BuWE-15" style="edgeStyle=orthogonalEdgeStyle;rounded=0;orthogonalLoop=1;jettySize=auto;html=1;exitX=1;exitY=0.5;exitDx=0;exitDy=0;entryX=0;entryY=0.25;entryDx=0;entryDy=0;" parent="1" source="CKitpAn34eTJPyH5BuWE-5" target="CKitpAn34eTJPyH5BuWE-13" edge="1">
          <mxGeometry relative="1" as="geometry" />
        </mxCell>
        <mxCell id="CKitpAn34eTJPyH5BuWE-5" value="2.1-1" style="swimlane;html=1;fontStyle=0;childLayout=stackLayout;horizontal=1;startSize=26;fillColor=#e0e0e0;horizontalStack=0;resizeParent=1;resizeLast=0;collapsible=1;marginBottom=0;swimlaneFillColor=#ffffff;align=center;rounded=1;shadow=0;comic=0;labelBackgroundColor=none;strokeWidth=1;fontFamily=Verdana;fontSize=12" parent="1" vertex="1">
          <mxGeometry x="197.5" y="120" width="140" height="52" as="geometry" />
        </mxCell>
        <mxCell id="CKitpAn34eTJPyH5BuWE-6" value="GNSS 信号解析" style="text;html=1;strokeColor=none;fillColor=none;spacingLeft=4;spacingRight=4;whiteSpace=wrap;overflow=hidden;rotatable=0;points=[[0,0.5],[1,0.5]];portConstraint=eastwest;align=center;" parent="CKitpAn34eTJPyH5BuWE-5" vertex="1">
          <mxGeometry y="26" width="140" height="26" as="geometry" />
        </mxCell>
        <mxCell id="CKitpAn34eTJPyH5BuWE-18" style="edgeStyle=orthogonalEdgeStyle;rounded=0;orthogonalLoop=1;jettySize=auto;html=1;exitX=1;exitY=0.25;exitDx=0;exitDy=0;entryX=0.5;entryY=0;entryDx=0;entryDy=0;" parent="1" source="CKitpAn34eTJPyH5BuWE-8" target="CKitpAn34eTJPyH5BuWE-16" edge="1">
          <mxGeometry relative="1" as="geometry" />
        </mxCell>
        <mxCell id="CKitpAn34eTJPyH5BuWE-8" value="1.2" style="swimlane;html=1;fontStyle=0;childLayout=stackLayout;horizontal=1;startSize=26;fillColor=#e0e0e0;horizontalStack=0;resizeParent=1;resizeLast=0;collapsible=1;marginBottom=0;swimlaneFillColor=#ffffff;align=center;rounded=1;shadow=0;comic=0;labelBackgroundColor=none;strokeWidth=1;fontFamily=Verdana;fontSize=12" parent="1" vertex="1">
          <mxGeometry x="420" width="140" height="52" as="geometry" />
        </mxCell>
        <mxCell id="CKitpAn34eTJPyH5BuWE-9" value="点云数据匹配" style="text;html=1;strokeColor=none;fillColor=none;spacingLeft=4;spacingRight=4;whiteSpace=wrap;overflow=hidden;rotatable=0;points=[[0,0.5],[1,0.5]];portConstraint=eastwest;align=center;" parent="CKitpAn34eTJPyH5BuWE-8" vertex="1">
          <mxGeometry y="26" width="140" height="26" as="geometry" />
        </mxCell>
        <mxCell id="tL_JUln0x5uJwvVHxqYm-3" style="edgeStyle=orthogonalEdgeStyle;rounded=0;orthogonalLoop=1;jettySize=auto;html=1;exitX=1;exitY=0.25;exitDx=0;exitDy=0;entryX=0;entryY=0.25;entryDx=0;entryDy=0;" parent="1" source="CKitpAn34eTJPyH5BuWE-13" target="CKitpAn34eTJPyH5BuWE-16" edge="1">
          <mxGeometry relative="1" as="geometry" />
        </mxCell>
        <mxCell id="CKitpAn34eTJPyH5BuWE-13" value="2.2-1" style="swimlane;html=1;fontStyle=0;childLayout=stackLayout;horizontal=1;startSize=26;fillColor=#e0e0e0;horizontalStack=0;resizeParent=1;resizeLast=0;collapsible=1;marginBottom=0;swimlaneFillColor=#ffffff;align=center;rounded=1;shadow=0;comic=0;labelBackgroundColor=none;strokeWidth=1;fontFamily=Verdana;fontSize=12" parent="1" vertex="1">
          <mxGeometry x="417.5" y="120" width="140" height="52" as="geometry" />
        </mxCell>
        <mxCell id="CKitpAn34eTJPyH5BuWE-14" value="GNSS 信息处理与转换" style="text;html=1;strokeColor=none;fillColor=none;spacingLeft=4;spacingRight=4;whiteSpace=wrap;overflow=hidden;rotatable=0;points=[[0,0.5],[1,0.5]];portConstraint=eastwest;align=center;" parent="CKitpAn34eTJPyH5BuWE-13" vertex="1">
          <mxGeometry y="26" width="140" height="26" as="geometry" />
        </mxCell>
        <mxCell id="0hgIu4bi1w9tj0jOODyT-4" style="edgeStyle=orthogonalEdgeStyle;rounded=0;orthogonalLoop=1;jettySize=auto;html=1;exitX=1;exitY=0.5;exitDx=0;exitDy=0;entryX=0;entryY=0.25;entryDx=0;entryDy=0;" parent="1" source="CKitpAn34eTJPyH5BuWE-16" target="tL_JUln0x5uJwvVHxqYm-4" edge="1">
          <mxGeometry relative="1" as="geometry" />
        </mxCell>
        <mxCell id="CKitpAn34eTJPyH5BuWE-16" value="3.1" style="swimlane;html=1;fontStyle=0;childLayout=stackLayout;horizontal=1;startSize=26;fillColor=#e0e0e0;horizontalStack=0;resizeParent=1;resizeLast=0;collapsible=1;marginBottom=0;swimlaneFillColor=#ffffff;align=center;rounded=1;shadow=0;comic=0;labelBackgroundColor=none;strokeWidth=1;fontFamily=Verdana;fontSize=12" parent="1" vertex="1">
          <mxGeometry x="640" y="162" width="140" height="52" as="geometry" />
        </mxCell>
        <mxCell id="CKitpAn34eTJPyH5BuWE-17" value="融合定位处理" style="text;html=1;strokeColor=none;fillColor=none;spacingLeft=4;spacingRight=4;whiteSpace=wrap;overflow=hidden;rotatable=0;points=[[0,0.5],[1,0.5]];portConstraint=eastwest;align=center;" parent="CKitpAn34eTJPyH5BuWE-16" vertex="1">
          <mxGeometry y="26" width="140" height="26" as="geometry" />
        </mxCell>
        <mxCell id="CKitpAn34eTJPyH5BuWE-20" style="edgeStyle=orthogonalEdgeStyle;rounded=0;orthogonalLoop=1;jettySize=auto;html=1;exitX=1;exitY=0.5;exitDx=0;exitDy=0;entryX=0;entryY=0.25;entryDx=0;entryDy=0;" parent="1" source="CKitpAn34eTJPyH5BuWE-21" target="CKitpAn34eTJPyH5BuWE-23" edge="1">
          <mxGeometry relative="1" as="geometry" />
        </mxCell>
        <mxCell id="CKitpAn34eTJPyH5BuWE-21" value="2.1-2" style="swimlane;html=1;fontStyle=0;childLayout=stackLayout;horizontal=1;startSize=26;fillColor=#e0e0e0;horizontalStack=0;resizeParent=1;resizeLast=0;collapsible=1;marginBottom=0;swimlaneFillColor=#ffffff;align=center;rounded=1;shadow=0;comic=0;labelBackgroundColor=none;strokeWidth=1;fontFamily=Verdana;fontSize=12" parent="1" vertex="1">
          <mxGeometry x="200" y="240" width="140" height="52" as="geometry" />
        </mxCell>
        <mxCell id="CKitpAn34eTJPyH5BuWE-22" value="GNSS 信号解析" style="text;html=1;strokeColor=none;fillColor=none;spacingLeft=4;spacingRight=4;whiteSpace=wrap;overflow=hidden;rotatable=0;points=[[0,0.5],[1,0.5]];portConstraint=eastwest;align=center;" parent="CKitpAn34eTJPyH5BuWE-21" vertex="1">
          <mxGeometry y="26" width="140" height="26" as="geometry" />
        </mxCell>
        <mxCell id="W6yG89-xySl9O2DCmFQ0-4" style="edgeStyle=orthogonalEdgeStyle;rounded=0;orthogonalLoop=1;jettySize=auto;html=1;exitX=1;exitY=0.5;exitDx=0;exitDy=0;entryX=-0.006;entryY=0.254;entryDx=0;entryDy=0;entryPerimeter=0;" parent="1" source="CKitpAn34eTJPyH5BuWE-23" target="CKitpAn34eTJPyH5BuWE-17" edge="1">
          <mxGeometry relative="1" as="geometry" />
        </mxCell>
        <mxCell id="CKitpAn34eTJPyH5BuWE-23" value="2.2-2" style="swimlane;html=1;fontStyle=0;childLayout=stackLayout;horizontal=1;startSize=26;fillColor=#e0e0e0;horizontalStack=0;resizeParent=1;resizeLast=0;collapsible=1;marginBottom=0;swimlaneFillColor=#ffffff;align=center;rounded=1;shadow=0;comic=0;labelBackgroundColor=none;strokeWidth=1;fontFamily=Verdana;fontSize=12" parent="1" vertex="1">
          <mxGeometry x="420" y="240" width="140" height="52" as="geometry" />
        </mxCell>
        <mxCell id="CKitpAn34eTJPyH5BuWE-24" value="GNSS 信息处理与转换" style="text;html=1;strokeColor=none;fillColor=none;spacingLeft=4;spacingRight=4;whiteSpace=wrap;overflow=hidden;rotatable=0;points=[[0,0.5],[1,0.5]];portConstraint=eastwest;align=center;" parent="CKitpAn34eTJPyH5BuWE-23" vertex="1">
          <mxGeometry y="26" width="140" height="26" as="geometry" />
        </mxCell>
        <mxCell id="SrfplcpbmUxofHk9KIb3-4" style="edgeStyle=orthogonalEdgeStyle;rounded=0;orthogonalLoop=1;jettySize=auto;html=1;exitX=1;exitY=0.5;exitDx=0;exitDy=0;entryX=0;entryY=0.25;entryDx=0;entryDy=0;" parent="1" source="1_bBR38_FuNowLDQo-79-1" target="1_bBR38_FuNowLDQo-79-5" edge="1">
          <mxGeometry relative="1" as="geometry" />
        </mxCell>
        <mxCell id="1_bBR38_FuNowLDQo-79-1" value="4.2-1" style="swimlane;html=1;fontStyle=0;childLayout=stackLayout;horizontal=1;startSize=26;fillColor=#e0e0e0;horizontalStack=0;resizeParent=1;resizeLast=0;collapsible=1;marginBottom=0;swimlaneFillColor=#ffffff;align=center;rounded=1;shadow=0;comic=0;labelBackgroundColor=none;strokeWidth=1;fontFamily=Verdana;fontSize=12" parent="1" vertex="1">
          <mxGeometry x="1059" y="440" width="140" height="52" as="geometry" />
        </mxCell>
        <mxCell id="1_bBR38_FuNowLDQo-79-2" value="循迹跟随控制" style="text;html=1;strokeColor=none;fillColor=none;spacingLeft=4;spacingRight=4;whiteSpace=wrap;overflow=hidden;rotatable=0;points=[[0,0.5],[1,0.5]];portConstraint=eastwest;align=center;" parent="1_bBR38_FuNowLDQo-79-1" vertex="1">
          <mxGeometry y="26" width="140" height="26" as="geometry" />
        </mxCell>
        <mxCell id="0hgIu4bi1w9tj0jOODyT-10" style="edgeStyle=orthogonalEdgeStyle;rounded=0;orthogonalLoop=1;jettySize=auto;html=1;exitX=0.25;exitY=1;exitDx=0;exitDy=0;entryX=0.299;entryY=0.033;entryDx=0;entryDy=0;entryPerimeter=0;" parent="1" source="1_bBR38_FuNowLDQo-79-3" target="1_bBR38_FuNowLDQo-79-15" edge="1">
          <mxGeometry relative="1" as="geometry">
            <Array as="points">
              <mxPoint x="872" y="640" />
              <mxPoint x="1023" y="640" />
            </Array>
          </mxGeometry>
        </mxCell>
        <mxCell id="Zdxj3fdq43ztmExB7XTK-5" style="edgeStyle=orthogonalEdgeStyle;rounded=0;orthogonalLoop=1;jettySize=auto;html=1;exitX=1;exitY=0.25;exitDx=0;exitDy=0;" parent="1" source="1_bBR38_FuNowLDQo-79-3" target="0hgIu4bi1w9tj0jOODyT-5" edge="1">
          <mxGeometry relative="1" as="geometry" />
        </mxCell>
        <mxCell id="1_bBR38_FuNowLDQo-79-3" value="4.3-1" style="swimlane;html=1;fontStyle=0;childLayout=stackLayout;horizontal=1;startSize=26;fillColor=#e0e0e0;horizontalStack=0;resizeParent=1;resizeLast=0;collapsible=1;marginBottom=0;swimlaneFillColor=#ffffff;align=center;rounded=1;shadow=0;comic=0;labelBackgroundColor=none;strokeWidth=1;fontFamily=Verdana;fontSize=12" parent="1" vertex="1">
          <mxGeometry x="837.5" y="540" width="140" height="52" as="geometry" />
        </mxCell>
        <mxCell id="1_bBR38_FuNowLDQo-79-4" value="道岔选择" style="text;html=1;strokeColor=none;fillColor=none;spacingLeft=4;spacingRight=4;whiteSpace=wrap;overflow=hidden;rotatable=0;points=[[0,0.5],[1,0.5]];portConstraint=eastwest;align=center;" parent="1_bBR38_FuNowLDQo-79-3" vertex="1">
          <mxGeometry y="26" width="140" height="26" as="geometry" />
        </mxCell>
        <mxCell id="SrfplcpbmUxofHk9KIb3-5" style="edgeStyle=orthogonalEdgeStyle;rounded=0;orthogonalLoop=1;jettySize=auto;html=1;exitX=1;exitY=0.5;exitDx=0;exitDy=0;entryX=0;entryY=0.5;entryDx=0;entryDy=0;" parent="1" source="1_bBR38_FuNowLDQo-79-5" target="ZL5qTLz6J4-oIe0PHsDY-6" edge="1">
          <mxGeometry relative="1" as="geometry" />
        </mxCell>
        <mxCell id="Zdxj3fdq43ztmExB7XTK-4" style="edgeStyle=orthogonalEdgeStyle;rounded=0;orthogonalLoop=1;jettySize=auto;html=1;entryX=1;entryY=0.25;entryDx=0;entryDy=0;" parent="1" source="1_bBR38_FuNowLDQo-79-5" target="1_bBR38_FuNowLDQo-79-15" edge="1">
          <mxGeometry relative="1" as="geometry">
            <Array as="points">
              <mxPoint x="1290" y="769" />
            </Array>
          </mxGeometry>
        </mxCell>
        <mxCell id="1_bBR38_FuNowLDQo-79-5" value="4.6" style="swimlane;html=1;fontStyle=0;childLayout=stackLayout;horizontal=1;startSize=26;fillColor=#e0e0e0;horizontalStack=0;resizeParent=1;resizeLast=0;collapsible=1;marginBottom=0;swimlaneFillColor=#ffffff;align=center;rounded=1;shadow=0;comic=0;labelBackgroundColor=none;strokeWidth=1;fontFamily=Verdana;fontSize=12" parent="1" vertex="1">
          <mxGeometry x="1240" y="440" width="140" height="52" as="geometry" />
        </mxCell>
        <mxCell id="1_bBR38_FuNowLDQo-79-6" value="循迹模式切换" style="text;html=1;strokeColor=none;fillColor=none;spacingLeft=4;spacingRight=4;whiteSpace=wrap;overflow=hidden;rotatable=0;points=[[0,0.5],[1,0.5]];portConstraint=eastwest;align=center;" parent="1_bBR38_FuNowLDQo-79-5" vertex="1">
          <mxGeometry y="26" width="140" height="26" as="geometry" />
        </mxCell>
        <mxCell id="SrfplcpbmUxofHk9KIb3-15" style="edgeStyle=orthogonalEdgeStyle;rounded=0;orthogonalLoop=1;jettySize=auto;html=1;exitX=1;exitY=0.5;exitDx=0;exitDy=0;entryX=0;entryY=0.5;entryDx=0;entryDy=0;" parent="1" source="1_bBR38_FuNowLDQo-79-7" target="o8_byREZAqRba5Iupg0P-2" edge="1">
          <mxGeometry relative="1" as="geometry" />
        </mxCell>
        <mxCell id="1_bBR38_FuNowLDQo-79-7" value="4.7" style="swimlane;html=1;fontStyle=0;childLayout=stackLayout;horizontal=1;startSize=26;fillColor=#e0e0e0;horizontalStack=0;resizeParent=1;resizeLast=0;collapsible=1;marginBottom=0;swimlaneFillColor=#ffffff;align=center;rounded=1;shadow=0;comic=0;labelBackgroundColor=none;strokeWidth=1;fontFamily=Verdana;fontSize=12" parent="1" vertex="1">
          <mxGeometry x="1390" y="610" width="140" height="52" as="geometry" />
        </mxCell>
        <mxCell id="1_bBR38_FuNowLDQo-79-8" value="失效安全保护" style="text;html=1;strokeColor=none;fillColor=none;spacingLeft=4;spacingRight=4;whiteSpace=wrap;overflow=hidden;rotatable=0;points=[[0,0.5],[1,0.5]];portConstraint=eastwest;align=center;" parent="1_bBR38_FuNowLDQo-79-7" vertex="1">
          <mxGeometry y="26" width="140" height="26" as="geometry" />
        </mxCell>
        <mxCell id="SrfplcpbmUxofHk9KIb3-1" style="edgeStyle=orthogonalEdgeStyle;rounded=0;orthogonalLoop=1;jettySize=auto;html=1;exitX=0.5;exitY=0;exitDx=0;exitDy=0;entryX=0.5;entryY=1;entryDx=0;entryDy=0;" parent="1" source="1_bBR38_FuNowLDQo-79-14" target="1_bBR38_FuNowLDQo-79-15" edge="1">
          <mxGeometry relative="1" as="geometry" />
        </mxCell>
        <mxCell id="1_bBR38_FuNowLDQo-79-14" value="信号系统&lt;br&gt;SCS" style="rounded=0;whiteSpace=wrap;html=1;" parent="1" vertex="1">
          <mxGeometry x="960" y="854" width="210" height="60" as="geometry" />
        </mxCell>
        <mxCell id="SrfplcpbmUxofHk9KIb3-3" style="edgeStyle=orthogonalEdgeStyle;rounded=0;orthogonalLoop=1;jettySize=auto;html=1;exitX=1;exitY=0.5;exitDx=0;exitDy=0;entryX=0.619;entryY=1.024;entryDx=0;entryDy=0;entryPerimeter=0;" parent="1" source="1_bBR38_FuNowLDQo-79-15" target="1_bBR38_FuNowLDQo-79-6" edge="1">
          <mxGeometry relative="1" as="geometry">
            <Array as="points">
              <mxPoint x="1170" y="800" />
              <mxPoint x="1327" y="800" />
            </Array>
          </mxGeometry>
        </mxCell>
        <mxCell id="0hgIu4bi1w9tj0jOODyT-1" style="edgeStyle=orthogonalEdgeStyle;rounded=0;orthogonalLoop=1;jettySize=auto;html=1;exitX=0;exitY=0.25;exitDx=0;exitDy=0;entryX=0.003;entryY=0.376;entryDx=0;entryDy=0;entryPerimeter=0;" parent="1" source="1_bBR38_FuNowLDQo-79-15" target="I3Sm8Q1l1oSc-Qxl9463-2" edge="1">
          <mxGeometry relative="1" as="geometry">
            <mxPoint x="740" y="330" as="targetPoint" />
            <Array as="points">
              <mxPoint x="810" y="769" />
              <mxPoint x="810" y="280" />
            </Array>
          </mxGeometry>
        </mxCell>
        <mxCell id="0hgIu4bi1w9tj0jOODyT-9" style="edgeStyle=orthogonalEdgeStyle;rounded=0;orthogonalLoop=1;jettySize=auto;html=1;exitX=0.75;exitY=0;exitDx=0;exitDy=0;entryX=0.826;entryY=0.988;entryDx=0;entryDy=0;entryPerimeter=0;" parent="1" source="1_bBR38_FuNowLDQo-79-15" target="1_bBR38_FuNowLDQo-79-4" edge="1">
          <mxGeometry relative="1" as="geometry">
            <Array as="points">
              <mxPoint x="1090" y="754" />
              <mxPoint x="1090" y="620" />
              <mxPoint x="953" y="620" />
            </Array>
          </mxGeometry>
        </mxCell>
        <mxCell id="1_bBR38_FuNowLDQo-79-15" value="整车网络&lt;br&gt;VCMS" style="rounded=0;whiteSpace=wrap;html=1;" parent="1" vertex="1">
          <mxGeometry x="960" y="754" width="210" height="60" as="geometry" />
        </mxCell>
        <mxCell id="SrfplcpbmUxofHk9KIb3-7" style="edgeStyle=orthogonalEdgeStyle;rounded=0;orthogonalLoop=1;jettySize=auto;html=1;exitX=0;exitY=0.5;exitDx=0;exitDy=0;entryX=1;entryY=0.5;entryDx=0;entryDy=0;" parent="1" source="1_bBR38_FuNowLDQo-79-23" target="1_bBR38_FuNowLDQo-79-4" edge="1">
          <mxGeometry relative="1" as="geometry">
            <Array as="points">
              <mxPoint x="1120" y="650" />
              <mxPoint x="1120" y="579" />
            </Array>
          </mxGeometry>
        </mxCell>
        <mxCell id="1_bBR38_FuNowLDQo-79-23" value="矢量地图" style="shape=parallelogram;html=1;strokeWidth=2;perimeter=parallelogramPerimeter;whiteSpace=wrap;rounded=1;arcSize=12;size=0.23;" parent="1" vertex="1">
          <mxGeometry x="1150" y="620" width="100" height="60" as="geometry" />
        </mxCell>
        <mxCell id="1_bBR38_FuNowLDQo-79-24" value="点云地图" style="shape=parallelogram;html=1;strokeWidth=2;perimeter=parallelogramPerimeter;whiteSpace=wrap;rounded=1;arcSize=12;size=0.23;" parent="1" vertex="1">
          <mxGeometry x="440" y="-108" width="100" height="60" as="geometry" />
        </mxCell>
        <mxCell id="SrfplcpbmUxofHk9KIb3-13" style="edgeStyle=orthogonalEdgeStyle;rounded=0;orthogonalLoop=1;jettySize=auto;html=1;exitX=0.5;exitY=0;exitDx=0;exitDy=0;entryX=0;entryY=0.5;entryDx=0;entryDy=0;" parent="1" source="SrfplcpbmUxofHk9KIb3-11" target="1_bBR38_FuNowLDQo-79-8" edge="1">
          <mxGeometry relative="1" as="geometry" />
        </mxCell>
        <mxCell id="SrfplcpbmUxofHk9KIb3-11" value="生命信号心跳*2（CAN/ETH）&lt;br&gt;包含：无轨+网络" style="text;html=1;strokeColor=none;fillColor=none;align=center;verticalAlign=middle;whiteSpace=wrap;rounded=0;" parent="1" vertex="1">
          <mxGeometry x="1290" y="820" width="110" height="50" as="geometry" />
        </mxCell>
        <mxCell id="SrfplcpbmUxofHk9KIb3-14" style="edgeStyle=orthogonalEdgeStyle;rounded=0;orthogonalLoop=1;jettySize=auto;html=1;exitX=0.5;exitY=0;exitDx=0;exitDy=0;entryX=0.643;entryY=1;entryDx=0;entryDy=0;entryPerimeter=0;" parent="1" source="SrfplcpbmUxofHk9KIb3-12" target="1_bBR38_FuNowLDQo-79-8" edge="1">
          <mxGeometry relative="1" as="geometry" />
        </mxCell>
        <mxCell id="SrfplcpbmUxofHk9KIb3-12" value="关键故障*2（ETH）&lt;br&gt;包含：无轨+网络" style="text;html=1;strokeColor=none;fillColor=none;align=center;verticalAlign=middle;whiteSpace=wrap;rounded=0;" parent="1" vertex="1">
          <mxGeometry x="1440" y="820" width="100" height="50" as="geometry" />
        </mxCell>
        <mxCell id="G2yhaBqVQ7Rxf4hUkdya-17" style="edgeStyle=orthogonalEdgeStyle;rounded=0;orthogonalLoop=1;jettySize=auto;html=1;exitX=1;exitY=0.5;exitDx=0;exitDy=0;entryX=0;entryY=0.25;entryDx=0;entryDy=0;" parent="1" source="G2yhaBqVQ7Rxf4hUkdya-1" target="G2yhaBqVQ7Rxf4hUkdya-3" edge="1">
          <mxGeometry relative="1" as="geometry" />
        </mxCell>
        <mxCell id="G2yhaBqVQ7Rxf4hUkdya-1" value="2.1-3" style="swimlane;html=1;fontStyle=0;childLayout=stackLayout;horizontal=1;startSize=26;fillColor=#e0e0e0;horizontalStack=0;resizeParent=1;resizeLast=0;collapsible=1;marginBottom=0;swimlaneFillColor=#ffffff;align=center;rounded=1;shadow=0;comic=0;labelBackgroundColor=none;strokeWidth=1;fontFamily=Verdana;fontSize=12" parent="1" vertex="1">
          <mxGeometry x="197.5" y="428" width="140" height="52" as="geometry" />
        </mxCell>
        <mxCell id="G2yhaBqVQ7Rxf4hUkdya-2" value="GNSS 信号解析" style="text;html=1;strokeColor=none;fillColor=none;spacingLeft=4;spacingRight=4;whiteSpace=wrap;overflow=hidden;rotatable=0;points=[[0,0.5],[1,0.5]];portConstraint=eastwest;align=center;" parent="G2yhaBqVQ7Rxf4hUkdya-1" vertex="1">
          <mxGeometry y="26" width="140" height="26" as="geometry" />
        </mxCell>
        <mxCell id="G2yhaBqVQ7Rxf4hUkdya-9" style="edgeStyle=orthogonalEdgeStyle;rounded=0;orthogonalLoop=1;jettySize=auto;html=1;exitX=1;exitY=0.25;exitDx=0;exitDy=0;" parent="1" source="G2yhaBqVQ7Rxf4hUkdya-3" edge="1">
          <mxGeometry relative="1" as="geometry">
            <mxPoint x="540.166666666667" y="441.3333333333335" as="targetPoint" />
          </mxGeometry>
        </mxCell>
        <mxCell id="G2yhaBqVQ7Rxf4hUkdya-14" style="edgeStyle=orthogonalEdgeStyle;rounded=0;orthogonalLoop=1;jettySize=auto;html=1;exitX=1;exitY=0.25;exitDx=0;exitDy=0;entryX=0.25;entryY=0;entryDx=0;entryDy=0;" parent="1" source="G2yhaBqVQ7Rxf4hUkdya-3" target="G2yhaBqVQ7Rxf4hUkdya-10" edge="1">
          <mxGeometry relative="1" as="geometry" />
        </mxCell>
        <mxCell id="G2yhaBqVQ7Rxf4hUkdya-3" value="2.2-3" style="swimlane;html=1;fontStyle=0;childLayout=stackLayout;horizontal=1;startSize=26;fillColor=#e0e0e0;horizontalStack=0;resizeParent=1;resizeLast=0;collapsible=1;marginBottom=0;swimlaneFillColor=#ffffff;align=center;rounded=1;shadow=0;comic=0;labelBackgroundColor=none;strokeWidth=1;fontFamily=Verdana;fontSize=12" parent="1" vertex="1">
          <mxGeometry x="417.5" y="428" width="140" height="52" as="geometry" />
        </mxCell>
        <mxCell id="G2yhaBqVQ7Rxf4hUkdya-4" value="GNSS 信息处理与转换" style="text;html=1;strokeColor=none;fillColor=none;spacingLeft=4;spacingRight=4;whiteSpace=wrap;overflow=hidden;rotatable=0;points=[[0,0.5],[1,0.5]];portConstraint=eastwest;align=center;" parent="G2yhaBqVQ7Rxf4hUkdya-3" vertex="1">
          <mxGeometry y="26" width="140" height="26" as="geometry" />
        </mxCell>
        <mxCell id="G2yhaBqVQ7Rxf4hUkdya-18" style="edgeStyle=orthogonalEdgeStyle;rounded=0;orthogonalLoop=1;jettySize=auto;html=1;exitX=1;exitY=0.5;exitDx=0;exitDy=0;entryX=0;entryY=0.25;entryDx=0;entryDy=0;" parent="1" source="G2yhaBqVQ7Rxf4hUkdya-5" target="G2yhaBqVQ7Rxf4hUkdya-7" edge="1">
          <mxGeometry relative="1" as="geometry" />
        </mxCell>
        <mxCell id="G2yhaBqVQ7Rxf4hUkdya-5" value="2.1-3" style="swimlane;html=1;fontStyle=0;childLayout=stackLayout;horizontal=1;startSize=26;fillColor=#e0e0e0;horizontalStack=0;resizeParent=1;resizeLast=0;collapsible=1;marginBottom=0;swimlaneFillColor=#ffffff;align=center;rounded=1;shadow=0;comic=0;labelBackgroundColor=none;strokeWidth=1;fontFamily=Verdana;fontSize=12" parent="1" vertex="1">
          <mxGeometry x="197.5" y="550" width="140" height="52" as="geometry" />
        </mxCell>
        <mxCell id="G2yhaBqVQ7Rxf4hUkdya-6" value="GNSS 信号解析" style="text;html=1;strokeColor=none;fillColor=none;spacingLeft=4;spacingRight=4;whiteSpace=wrap;overflow=hidden;rotatable=0;points=[[0,0.5],[1,0.5]];portConstraint=eastwest;align=center;" parent="G2yhaBqVQ7Rxf4hUkdya-5" vertex="1">
          <mxGeometry y="26" width="140" height="26" as="geometry" />
        </mxCell>
        <mxCell id="G2yhaBqVQ7Rxf4hUkdya-15" style="edgeStyle=orthogonalEdgeStyle;rounded=0;orthogonalLoop=1;jettySize=auto;html=1;exitX=1;exitY=0.25;exitDx=0;exitDy=0;entryX=0;entryY=0.25;entryDx=0;entryDy=0;" parent="1" source="G2yhaBqVQ7Rxf4hUkdya-7" target="G2yhaBqVQ7Rxf4hUkdya-10" edge="1">
          <mxGeometry relative="1" as="geometry" />
        </mxCell>
        <mxCell id="G2yhaBqVQ7Rxf4hUkdya-7" value="2.2-3" style="swimlane;html=1;fontStyle=0;childLayout=stackLayout;horizontal=1;startSize=26;fillColor=#e0e0e0;horizontalStack=0;resizeParent=1;resizeLast=0;collapsible=1;marginBottom=0;swimlaneFillColor=#ffffff;align=center;rounded=1;shadow=0;comic=0;labelBackgroundColor=none;strokeWidth=1;fontFamily=Verdana;fontSize=12" parent="1" vertex="1">
          <mxGeometry x="417.5" y="550" width="140" height="52" as="geometry" />
        </mxCell>
        <mxCell id="G2yhaBqVQ7Rxf4hUkdya-8" value="GNSS 信息处理与转换" style="text;html=1;strokeColor=none;fillColor=none;spacingLeft=4;spacingRight=4;whiteSpace=wrap;overflow=hidden;rotatable=0;points=[[0,0.5],[1,0.5]];portConstraint=eastwest;align=center;" parent="G2yhaBqVQ7Rxf4hUkdya-7" vertex="1">
          <mxGeometry y="26" width="140" height="26" as="geometry" />
        </mxCell>
        <mxCell id="G2yhaBqVQ7Rxf4hUkdya-13" style="edgeStyle=orthogonalEdgeStyle;rounded=0;orthogonalLoop=1;jettySize=auto;html=1;exitX=1;exitY=0.25;exitDx=0;exitDy=0;entryX=0;entryY=0.25;entryDx=0;entryDy=0;" parent="1" source="G2yhaBqVQ7Rxf4hUkdya-10" target="1_bBR38_FuNowLDQo-79-1" edge="1">
          <mxGeometry relative="1" as="geometry">
            <mxPoint x="790" y="501" as="sourcePoint" />
            <mxPoint x="837.5" y="453" as="targetPoint" />
          </mxGeometry>
        </mxCell>
        <mxCell id="Zdxj3fdq43ztmExB7XTK-3" style="edgeStyle=orthogonalEdgeStyle;rounded=0;orthogonalLoop=1;jettySize=auto;html=1;exitX=1;exitY=0.5;exitDx=0;exitDy=0;entryX=0.151;entryY=0.999;entryDx=0;entryDy=0;entryPerimeter=0;" parent="1" source="G2yhaBqVQ7Rxf4hUkdya-10" target="1_bBR38_FuNowLDQo-79-6" edge="1">
          <mxGeometry relative="1" as="geometry" />
        </mxCell>
        <mxCell id="G2yhaBqVQ7Rxf4hUkdya-10" value="2.3-3" style="swimlane;html=1;fontStyle=0;childLayout=stackLayout;horizontal=1;startSize=26;fillColor=#e0e0e0;horizontalStack=0;resizeParent=1;resizeLast=0;collapsible=1;marginBottom=0;swimlaneFillColor=#ffffff;align=center;rounded=1;shadow=0;comic=0;labelBackgroundColor=none;strokeWidth=1;fontFamily=Verdana;fontSize=12" parent="1" vertex="1">
          <mxGeometry x="620" y="488" width="140" height="52" as="geometry" />
        </mxCell>
        <mxCell id="G2yhaBqVQ7Rxf4hUkdya-11" value="双路表决_Duagon" style="text;html=1;strokeColor=none;fillColor=none;spacingLeft=4;spacingRight=4;whiteSpace=wrap;overflow=hidden;rotatable=0;points=[[0,0.5],[1,0.5]];portConstraint=eastwest;align=center;" parent="G2yhaBqVQ7Rxf4hUkdya-10" vertex="1">
          <mxGeometry y="26" width="140" height="26" as="geometry" />
        </mxCell>
        <mxCell id="0hgIu4bi1w9tj0jOODyT-12" style="edgeStyle=orthogonalEdgeStyle;rounded=0;orthogonalLoop=1;jettySize=auto;html=1;exitX=1;exitY=0.25;exitDx=0;exitDy=0;entryX=0.25;entryY=0;entryDx=0;entryDy=0;" parent="1" source="ZL5qTLz6J4-oIe0PHsDY-1" target="1_bBR38_FuNowLDQo-79-5" edge="1">
          <mxGeometry relative="1" as="geometry" />
        </mxCell>
        <mxCell id="tL_JUln0x5uJwvVHxqYm-4" value="4.2-2" style="swimlane;html=1;fontStyle=0;childLayout=stackLayout;horizontal=1;startSize=26;fillColor=#e0e0e0;horizontalStack=0;resizeParent=1;resizeLast=0;collapsible=1;marginBottom=0;swimlaneFillColor=#ffffff;align=center;rounded=1;shadow=0;comic=0;labelBackgroundColor=none;strokeWidth=1;fontFamily=Verdana;fontSize=12" parent="1" vertex="1">
          <mxGeometry x="870" y="162" width="140" height="52" as="geometry" />
        </mxCell>
        <mxCell id="tL_JUln0x5uJwvVHxqYm-5" value="循迹跟随控制" style="text;html=1;strokeColor=none;fillColor=none;spacingLeft=4;spacingRight=4;whiteSpace=wrap;overflow=hidden;rotatable=0;points=[[0,0.5],[1,0.5]];portConstraint=eastwest;align=center;" parent="tL_JUln0x5uJwvVHxqYm-4" vertex="1">
          <mxGeometry y="26" width="140" height="26" as="geometry" />
        </mxCell>
        <mxCell id="Zdxj3fdq43ztmExB7XTK-7" style="edgeStyle=orthogonalEdgeStyle;rounded=0;orthogonalLoop=1;jettySize=auto;html=1;exitX=1;exitY=0.25;exitDx=0;exitDy=0;entryX=1;entryY=0.25;entryDx=0;entryDy=0;" parent="1" source="I3Sm8Q1l1oSc-Qxl9463-1" target="0hgIu4bi1w9tj0jOODyT-14" edge="1">
          <mxGeometry relative="1" as="geometry" />
        </mxCell>
        <mxCell id="I3Sm8Q1l1oSc-Qxl9463-1" value="4.3-2" style="swimlane;html=1;fontStyle=0;childLayout=stackLayout;horizontal=1;startSize=26;fillColor=#e0e0e0;horizontalStack=0;resizeParent=1;resizeLast=0;collapsible=1;marginBottom=0;swimlaneFillColor=#ffffff;align=center;rounded=1;shadow=0;comic=0;labelBackgroundColor=none;strokeWidth=1;fontFamily=Verdana;fontSize=12" parent="1" vertex="1">
          <mxGeometry x="870" y="244" width="140" height="52" as="geometry" />
        </mxCell>
        <mxCell id="I3Sm8Q1l1oSc-Qxl9463-2" value="道岔选择" style="text;html=1;strokeColor=none;fillColor=none;spacingLeft=4;spacingRight=4;whiteSpace=wrap;overflow=hidden;rotatable=0;points=[[0,0.5],[1,0.5]];portConstraint=eastwest;align=center;" parent="I3Sm8Q1l1oSc-Qxl9463-1" vertex="1">
          <mxGeometry y="26" width="140" height="26" as="geometry" />
        </mxCell>
        <mxCell id="0hgIu4bi1w9tj0jOODyT-3" style="edgeStyle=orthogonalEdgeStyle;rounded=0;orthogonalLoop=1;jettySize=auto;html=1;exitX=0.168;exitY=0.986;exitDx=0;exitDy=0;entryX=0;entryY=0.25;entryDx=0;entryDy=0;exitPerimeter=0;" parent="1" source="I3Sm8Q1l1oSc-Qxl9463-3" target="I3Sm8Q1l1oSc-Qxl9463-1" edge="1">
          <mxGeometry relative="1" as="geometry">
            <Array as="points">
              <mxPoint x="907" y="98" />
              <mxPoint x="820" y="98" />
              <mxPoint x="820" y="257" />
            </Array>
          </mxGeometry>
        </mxCell>
        <mxCell id="I3Sm8Q1l1oSc-Qxl9463-3" value="矢量地图" style="shape=parallelogram;html=1;strokeWidth=2;perimeter=parallelogramPerimeter;whiteSpace=wrap;rounded=1;arcSize=12;size=0.23;" parent="1" vertex="1">
          <mxGeometry x="890" y="-108" width="100" height="60" as="geometry" />
        </mxCell>
        <mxCell id="0hgIu4bi1w9tj0jOODyT-8" style="edgeStyle=orthogonalEdgeStyle;rounded=0;orthogonalLoop=1;jettySize=auto;html=1;exitX=0.5;exitY=0;exitDx=0;exitDy=0;entryX=0.494;entryY=0.992;entryDx=0;entryDy=0;entryPerimeter=0;" parent="1" source="0hgIu4bi1w9tj0jOODyT-5" target="1_bBR38_FuNowLDQo-79-2" edge="1">
          <mxGeometry relative="1" as="geometry">
            <Array as="points">
              <mxPoint x="1200" y="530" />
              <mxPoint x="1128" y="530" />
            </Array>
          </mxGeometry>
        </mxCell>
        <mxCell id="0hgIu4bi1w9tj0jOODyT-5" value="4.4-1" style="swimlane;html=1;fontStyle=0;childLayout=stackLayout;horizontal=1;startSize=26;fillColor=#e0e0e0;horizontalStack=0;resizeParent=1;resizeLast=0;collapsible=1;marginBottom=0;swimlaneFillColor=#ffffff;align=center;rounded=1;shadow=0;comic=0;labelBackgroundColor=none;strokeWidth=1;fontFamily=Verdana;fontSize=12" parent="1" vertex="1">
          <mxGeometry x="1130" y="540" width="140" height="52" as="geometry" />
        </mxCell>
        <mxCell id="0hgIu4bi1w9tj0jOODyT-6" value="地图局部搜索" style="text;html=1;strokeColor=none;fillColor=none;spacingLeft=4;spacingRight=4;whiteSpace=wrap;overflow=hidden;rotatable=0;points=[[0,0.5],[1,0.5]];portConstraint=eastwest;align=center;" parent="0hgIu4bi1w9tj0jOODyT-5" vertex="1">
          <mxGeometry y="26" width="140" height="26" as="geometry" />
        </mxCell>
        <mxCell id="0hgIu4bi1w9tj0jOODyT-11" style="edgeStyle=orthogonalEdgeStyle;rounded=0;orthogonalLoop=1;jettySize=auto;html=1;exitX=1;exitY=0.5;exitDx=0;exitDy=0;" parent="1" source="I3Sm8Q1l1oSc-Qxl9463-2" target="1_bBR38_FuNowLDQo-79-15" edge="1">
          <mxGeometry relative="1" as="geometry">
            <Array as="points">
              <mxPoint x="1040" y="283" />
            </Array>
          </mxGeometry>
        </mxCell>
        <mxCell id="0hgIu4bi1w9tj0jOODyT-17" style="edgeStyle=orthogonalEdgeStyle;rounded=0;orthogonalLoop=1;jettySize=auto;html=1;" parent="1" source="0hgIu4bi1w9tj0jOODyT-14" target="tL_JUln0x5uJwvVHxqYm-4" edge="1">
          <mxGeometry relative="1" as="geometry" />
        </mxCell>
        <mxCell id="0hgIu4bi1w9tj0jOODyT-14" value="4.4-1" style="swimlane;html=1;fontStyle=0;childLayout=stackLayout;horizontal=1;startSize=26;fillColor=#e0e0e0;horizontalStack=0;resizeParent=1;resizeLast=0;collapsible=1;marginBottom=0;swimlaneFillColor=#ffffff;align=center;rounded=1;shadow=0;comic=0;labelBackgroundColor=none;strokeWidth=1;fontFamily=Verdana;fontSize=12" parent="1" vertex="1">
          <mxGeometry x="980" y="30" width="140" height="52" as="geometry" />
        </mxCell>
        <mxCell id="0hgIu4bi1w9tj0jOODyT-15" value="地图局部搜索" style="text;html=1;strokeColor=none;fillColor=none;spacingLeft=4;spacingRight=4;whiteSpace=wrap;overflow=hidden;rotatable=0;points=[[0,0.5],[1,0.5]];portConstraint=eastwest;align=center;" parent="0hgIu4bi1w9tj0jOODyT-14" vertex="1">
          <mxGeometry y="26" width="140" height="26" as="geometry" />
        </mxCell>
        <mxCell id="Zdxj3fdq43ztmExB7XTK-6" style="edgeStyle=orthogonalEdgeStyle;rounded=0;orthogonalLoop=1;jettySize=auto;html=1;entryX=0.066;entryY=0.036;entryDx=0;entryDy=0;entryPerimeter=0;" parent="1" source="1_bBR38_FuNowLDQo-79-6" target="1_bBR38_FuNowLDQo-79-7" edge="1">
          <mxGeometry relative="1" as="geometry" />
        </mxCell>
        <mxCell id="ZL5qTLz6J4-oIe0PHsDY-3" value="" style="edgeStyle=orthogonalEdgeStyle;rounded=0;orthogonalLoop=1;jettySize=auto;html=1;exitX=1;exitY=0.25;exitDx=0;exitDy=0;entryX=0;entryY=0.25;entryDx=0;entryDy=0;" parent="1" source="tL_JUln0x5uJwvVHxqYm-4" target="ZL5qTLz6J4-oIe0PHsDY-1" edge="1">
          <mxGeometry relative="1" as="geometry">
            <mxPoint x="1010" y="175" as="sourcePoint" />
            <mxPoint x="1275" y="440" as="targetPoint" />
          </mxGeometry>
        </mxCell>
        <mxCell id="ZL5qTLz6J4-oIe0PHsDY-1" value="4.5" style="swimlane;html=1;fontStyle=0;childLayout=stackLayout;horizontal=1;startSize=26;fillColor=#e0e0e0;horizontalStack=0;resizeParent=1;resizeLast=0;collapsible=1;marginBottom=0;swimlaneFillColor=#ffffff;align=center;rounded=1;shadow=0;comic=0;labelBackgroundColor=none;strokeWidth=1;fontFamily=Verdana;fontSize=12" parent="1" vertex="1">
          <mxGeometry x="1160" y="162" width="140" height="52" as="geometry" />
        </mxCell>
        <mxCell id="ZL5qTLz6J4-oIe0PHsDY-2" value="安全保护+HMI" style="text;html=1;strokeColor=none;fillColor=none;spacingLeft=4;spacingRight=4;whiteSpace=wrap;overflow=hidden;rotatable=0;points=[[0,0.5],[1,0.5]];portConstraint=eastwest;align=center;" parent="ZL5qTLz6J4-oIe0PHsDY-1" vertex="1">
          <mxGeometry y="26" width="140" height="26" as="geometry" />
        </mxCell>
        <mxCell id="ZL5qTLz6J4-oIe0PHsDY-5" value="关于4.7：触发失效安全保护，两种情况&lt;br&gt;1、循迹模式切换，主动触发安全制动&lt;br&gt;1.1）性能模式下，来自自主机箱的安全制动指令&lt;br&gt;1.2）安全模式下，双路表决失败&lt;br&gt;2、通信链路失效，被动触发安全制动" style="text;html=1;strokeColor=none;fillColor=none;align=left;verticalAlign=top;whiteSpace=wrap;rounded=0;" parent="1" vertex="1">
          <mxGeometry x="1310" y="880" width="270" height="80" as="geometry" />
        </mxCell>
        <mxCell id="ZL5qTLz6J4-oIe0PHsDY-6" value="线控方向机" style="rounded=0;whiteSpace=wrap;html=1;" parent="1" vertex="1">
          <mxGeometry x="1684" y="570" width="120" height="60" as="geometry" />
        </mxCell>
        <mxCell id="ni_HvnPDy8KeFar5Oy14-1" value="关于无轨导向&lt;br&gt;1、理想：无轨导向仅作为输入，发实际转角信号，实际转角执行是线控方向机。&lt;br&gt;2、备选：无轨导向，即作为执行也作为采集输入。" style="text;html=1;strokeColor=none;fillColor=none;align=left;verticalAlign=top;whiteSpace=wrap;rounded=0;" parent="1" vertex="1">
          <mxGeometry x="1810" y="428" width="326" height="76" as="geometry" />
        </mxCell>
      </root>
    </mxGraphModel>
  </diagram>
</mxfile>
